<?xml version="1.0" encoding="UTF-8"?>
<svg id="Calque_1" data-name="Calque 1" xmlns="http://www.w3.org/2000/svg" viewBox="0 0 1922.44 1081.93">
  <defs>
    <style>
      .cls-1 {
        fill: #d2a243;
      }

      .cls-2 {
        fill: #613850;
      }

      .cls-3 {
        fill: #c6344f;
      }

      .cls-4 {
        fill: #bf2c4e;
      }

      .cls-5 {
        fill: #daa736;
      }

      .cls-6 {
        fill: #b0a75a;
      }

      .cls-7 {
        fill: #5c3a52;
      }

      .cls-8 {
        fill: #9b9e5b;
      }

      .cls-9 {
        fill: #d3a13f;
      }

      .cls-10 {
        fill: #af2a4c;
      }

      .cls-11 {
        fill: #d36531;
      }

      .cls-12 {
        fill: #018f9b;
      }

      .cls-13 {
        fill: #d0a03f;
      }

      .cls-14 {
        fill: #3e6075;
      }

      .cls-15 {
        fill: #573b52;
      }

      .cls-16 {
        fill: #008b9d;
      }

      .cls-17 {
        fill: #d7a141;
      }

      .cls-18 {
        fill: #9a2c4d;
      }

      .cls-19 {
        fill: #a0a15a;
      }

      .cls-20 {
        fill: #a72c4d;
      }

      .cls-21 {
        fill: #b92c4b;
      }

      .cls-22 {
        fill: #d49e3e;
      }

      .cls-23 {
        fill: #d16831;
      }

      .cls-24 {
        fill: #77314c;
      }

      .cls-25 {
        fill: #cc3343;
      }

      .cls-26 {
        fill: #008b9e;
      }

      .cls-27 {
        fill: #d26432;
      }

      .cls-28 {
        fill: #01909d;
      }

      .cls-29 {
        fill: #638885;
      }

      .cls-30 {
        fill: #c32b4b;
      }

      .cls-31 {
        fill: #5a3951;
      }

      .cls-32 {
        fill: #603a53;
      }

      .cls-33 {
        fill: #d4742e;
      }

      .cls-34 {
        fill: #a62b4c;
      }

      .cls-35 {
        fill: #bda24c;
      }

      .cls-36 {
        fill: #b32b4d;
      }

      .cls-37 {
        fill: #d5413b;
      }

      .cls-38 {
        fill: #cc3b4d;
      }

      .cls-39 {
        fill: #593b52;
      }

      .cls-40 {
        fill: #c42d49;
      }

      .cls-41 {
        fill: #a2a159;
      }

      .cls-42 {
        fill: #d4a236;
      }

      .cls-43 {
        fill: #a22c4e;
      }

      .cls-44 {
        fill: #d1403e;
      }

      .cls-45 {
        fill: #949b5d;
      }

      .cls-46 {
        fill: #cd9f42;
      }

      .cls-47 {
        fill: #a6a258;
      }

      .cls-48 {
        fill: #d3883a;
      }

      .cls-49 {
        fill: #912c4c;
      }

      .cls-50 {
        fill: #69354e;
      }

      .cls-51 {
        fill: #008896;
      }

      .cls-52 {
        fill: #d35b32;
      }

      .cls-53 {
        fill: #613954;
      }

      .cls-54 {
        fill: #2a697c;
      }

      .cls-55 {
        fill: #cb3a3f;
      }

      .cls-56 {
        fill: #cba438;
      }

      .cls-57 {
        fill: #bf2d4b;
      }

      .cls-58 {
        fill: #c93049;
      }

      .cls-59 {
        fill: #79314c;
      }

      .cls-60 {
        fill: #d39d40;
      }

      .cls-61 {
        fill: #583952;
      }

      .cls-62 {
        fill: #cf3642;
      }

      .cls-63 {
        fill: #79304b;
      }

      .cls-64 {
        fill: #d4a43f;
      }

      .cls-65 {
        fill: #72324e;
      }

      .cls-66 {
        fill: #613851;
      }

      .cls-67 {
        fill: #af2c4e;
      }

      .cls-68 {
        fill: #72344e;
      }

      .cls-69 {
        fill: #6b3953;
      }

      .cls-70 {
        fill: #ce3449;
      }

      .cls-71 {
        fill: #b92c4c;
      }
    </style>
  </defs>
  <path class="cls-16" d="M420.39.89c-6.01,49.81,8.36,89.02,56,110,18.56,2.58,36.67,1.14,54.97-2.54,5.57-1.39,13.16-1.33,11.92,4.71-63.52,81.43-41.02,182.87,28.12,251.83,203.29,160.61,393.44-160.36,202.99-300-5.1-1.18-1.51-4.57.32-7.06,38.3-.96,71.84-19.8,84.67-56.94,0,0,47,0,47,0-6.19,75.59,87.37,74.22,80,0,0,0,274,0,274,0-76.57,22.75-154.27,57.25-214,110-.08,5.52-22.63,7.96-28.44,10.94-18.53,12.69-37.34,31.96-42.17,54.42l-2.39.64c-49.79,87.7-61.23,201.33-39,301-9.74,27.8-16.31,57.18-13.75,87.37,4.55,47.6,4.51,101.3-6.95,148.11-2.02,14.64-3.83,29.52-2.61,44.28,8.66,75.46,103.1,59.34,111.29-5.77,13,64.39,44.52,123.24,91.93,170.26,28.96,31.59,61.98,62.78,100.87,79.5,3.35,1.93,4.42,4.01,3.21,6.24,2.27,1.31,2.05,1.98.41,3.82-25.94,17.09-47.75,38.95-60.8,67.84-.56,3.73-72.99.14-74.62,1.35,0,0-1.96-1.92-1.96-1.92-8.39-51.96-69.03-46.93-79.04,1.92,0,0-37,0-37,0,40.64-249.05-371.39-255.07-330.99,0-2.24-2.31-264.11,4.36-264.18-2.29-3.52-31.28-32.73-61.91-63.72-67.07-47.53-8.15-91.4,20.38-95.09,69.36,0,0-210,0-210,0,0,0,0-232,0-232,47.59-4.05,98.95-1.1,147,1.99,13.88-1.91,25.75-1.41,36.68,8.22,126.12,101.56,262.31,99.37,238.09-95.71,2.76-7.1,7.6-10.81,13.78-13.04,27.02,4.03,70.41,11.84,72.79-26.64,7.79-43.43,9.83-87.63-43.71-95.48-7.93-2.14-13.81-5.92-17.64-11.34-3.49.28-4.05-4.46-1-6,46.77-177.95,5.08-396.79-186.01-468,25.76-23.05,53.48-57.92,65.95-93.32C348.42-17.7,296.21,4.54,420.39.89Z"/>
  <path class="cls-26" d="M1206.39,258.89c33.18-11.52,105.34,36.07,110,72,9.4,5.75,7.27,28.92,2.4,39.28-.06,91.68,94.66,182.71,187.39,163.14,0,0,3.21,1.58,3.21,1.58,6.66-5.75,29.37-.98,37.17,2.56,81.42,51.47,308.85,75.51,264.61-78.55-18.24-36.94-30.53-77.14-7.1-112.75,33.42,21.46,77,22.82,108.31-2.26,6.23,2.75,6.95,12.09,9,18,0,0,0,103,0,103l-1.81,2.65c-37.82,6.12-36.56,83.21-.87,68.45,7.66-2.98.11,218.98,2.68,219.9-149.72,67.76-258.24,147.22-303.01,313,2.27,3.15-.56,10.5-4,12,0,0-100,0-100,0-23.28-36.96-48.29-77.88-88.78-99.17-127.79-57.85-169.76-160.8-118.77-289.36,14.24-63.81-58.81-92.47-105.7-109.02-8.29-18.44-15.92-37.22-22.89-56.33-15.48-31.28-51.38-53.4-49.74-91.4.09-3.79.98-11.74,3.87-13.72-.97-4.24,1.62-4.93,7.77-2.05,32.18,22.62,77.96-8.15,66.46-45.9-13.89-25.82-13.31-55.47-7.95-83.75,1.08-8.57.9-17.53-3.02-25.44l.74-2.86c-.41-3.32,8.69-6.27,10-3Z"/>
  <path class="cls-40" d="M1554.39.89l2.07,1.09c-2.11,5.43-4.01,10.86-5.71,16.28l2.37.55c10.38-9.51,19.92,12.85,7.16,16.69,1.7,10.29,11.47,13.79,11.53,24.75,15.72,1.16,16.49,16.46,7.99,26.52,9.62-7.28,14.82-1.67,17.21-15.48-8.15,2.26-8.6-17.5-1.89-19.16,7.28-.36,18.16-1.7,4.25-3.26-2.94-2.16-6.75-9.58-3.18-12.19,1.76-1.29,37.91-.67,43.14,1.83,4.69-.16,4.58-1.02,3.95-5.09-5.12-10.25,6.74-12.2,9.08-1.88,12.31-10.32,115.49,64.11,77.26,51.47-2.68,8.28-10.57,14.18-18.27,17.44-4.35,14.33-19.52,22.16-29.76,32.32-4.9-1.02-18.19,3.8-7.56,3.82l3.39,3.05c10.42,1.15,16.5,9.66,12.16,19.25,2.64,6.52-.82,10.66-10.39,12.43.28,7.29-9.31,11.6-15.88,13.3-.19,6.18-6.39,8.11-11.22,5.03-4.26-4.63-7.17-5.07-11.92-.97-3.09-1.64-9.07.69-12.45,2.46-4.68,3.42-3.31,10.57-10.19,11.89,2.65,10.89-2.11,14.59-14.28,11.09-8.98,3.62-20.75,6.17-25.84,13.79,0,0-5.56-.43-5.56-.43-93.17-43.82-226.86,3.55-255.44,103.43-17.34-41.3-65.34-73.18-110-72-6.03-3.13-3.38-14.08-1.07-19.62,43.84-85.27-85.02-150.89-158.47-124.58-2.9-1.13-2.85-1.95-.46-3.8,41.44-40.06,94.86-69.95,148.73-90.77,42.69-30.11,307.79-16.8,359.27-19.23Z"/>
  <path class="cls-67" d="M1.39,604.89s1.77-2.67,1.77-2.67c22.04-5.35,44.33-.11,66.23.68,7.33-1.05,12.72,10,15.37,16.17,12.01,45.21,50.43,85.3,97.82,91.59,21.07,2.32,29.14-3.88,32.76-24.39,2.38-13.45,2.32-27.3,2.1-40.85,2.66-2.98,5.76-1.58,5.13,2.65-11.48,24.03,87.17-14.43,97.85-15.25,7.12,2.83,5.08,12.98,6.27,19.14,8.24-2.97,5.24-9.63,12.13-12.94-1.23-4.78,2.85-18.33,8.57-17.79,2.27.22,6.7,4.79,4.01,7.65l1.19,2.06c-16.37,71.98,92.47,79.34,27.81,118.94-15.55,21.56-44.9,36.66-67.92,49.71-18.13,10.13-38.26,24.05-59.38,30.78-79.93,34.09-167.4,17-251.69,18.51v-244Z"/>
  <path class="cls-17" d="M137.39,363.89c46.79,1.61,107.75,98.35,96,142-9.45,21.01-25.1,39.38-33.67,60.92-40.93-30.46-114.89-8.14-131.5,38.88-18.15-1.11-47.85-8.51-66.83-.8v-306c31.81,56.23,83.95,45.09,136,65Z"/>
  <path class="cls-65" d="M334.39.89c8.09,48.16-34.1,115.57-73,142-84.7-13.84-186.43-26.1-260,33,4.89-6.31-13.25-136.94,14.36-119.81C26.26,35.4,50.88,29.79,46.12,1.44c2.52-1.61,285.6,0,288.27-.55Z"/>
  <path class="cls-52" d="M231.39,135.89l.75,1.72c10.3,5.81,4.92,14.91-5.85,11.1-1.94,3.43-4.5,3.96-7.88,2.29-1.54,2.47-3.59,3.3-6.24,1.72,1.33,5.87-1.95,9.98-9.84,12.33-13.82,10.37,14.26,4.97-6.22,38.3,4.97,4.2,2.76,17.77-5.31,13.68-6.99,2.42-7.35,3.4-1.09,2.93,1.55-2.81,4.07-2.68,7.56.38,7.55.25,14.54,1.45,20.96,3.62,3.87-2.83,15.98-16.08,17.53-6.74-5,3.77-9.46,8.03-13.35,13.34,0,0-4.03-.64-4.03-.64-69.36-9.01-118.77,77.01-81,134C-19.84,336.31,1.17,319.51,1.4,175.89c59.69-55.9,154.56-50.43,230-40Z"/>
  <path class="cls-8" d="M965.39,1080.89c-2.16-3.11-181.77,6.1-180.06-3.36,1.26-27.47-13.31-50.06-24.28-73.86,1.77-3.18,1.39-2.77-1.17-4.96-5.99-37.61,17.34-73.87,34.06-105.68-5.39.63-7.91-.42-7.55-3.14,106.01-7.58,209.44,79.43,179,191Z"/>
  <path class="cls-60" d="M786.39,889.89c1.39,2.64,10.94-.87,9.97,2.46-12.02,19.78-28.18,55.8-34.27,77.74-5.82,13.04,6.65,39.05-5.81,33.06-4.29,5.68-2.95,19.01-9.52,20.42,0,0-.49,3.24-.49,3.24-12.4,4.48-3.43,24.68-12.79,21.24-.97,2.94-3.34,4.18-7.1,3.73-.7,11.08,14.18-4.39,10.89,20.39,18.54,17.68-102.27,5.25-102.88,8.73-20.8-96.46,49.7-195.52,152-191Z"/>
  <path class="cls-1" d="M1899.39.89c-.37,16.61-70.23,20.16-32.93,65.65,5,2.34,8.61,5.54,10.82,9.59,1.92,1.32,21.61.24,23.95-3.08l11.5.98c6.9-9.22,9.74,4.21,8.67,9.87-1.02,4.2-10.82,5.26-15.08,5.23-32.68-12.86-63.73,43.82-67.07,73.65-.65,4.48-4.75,11.79-8.85,7.12-7.39-6.29-18.59-16.81-20-27-6.19-3.65-10.85-10.92-12-18-29.71-47.26-79.09-75.54-126.01-103.99-6.64.05-15.14-3.64-18.99-9.01-7.23-.13-15.86-5.08-20-11h266Z"/>
  <path class="cls-30" d="M598.39.89c4.86,2,5.33,9.04-1.73,8.82-2.67,7.12-6.83,10.35-12.47,9.69-2.65,3.71-4.84,10.71-10.1,9.56,0,0,2.5,10.79,2.5,10.79,13.85,2.69,8.91,20.86,1.69,28.44-8.65,5.82-17.11,11.66-23.69,19.48-3.06-.29-3.61,1.14-1.66,4.29,0,2.93-11.37,14.73-14.36,14.84-21.18-3.51-40.49,10.42-62.19,4.09-46.47-12.37-68.12-65.78-56-110h178Z"/>
  <path class="cls-68" d="M1895.39,950.89c15.33,19.99,16.65,105.06,9.74,128.21-.09,5.34-288.98-.08-290.74,1.79.98-21.88,36.3-12.59,51.71-10.14,11.89-1.41,23.81-3.85,35.77-7.31,18.95.97,33.03.92,51.18-6.78,99.46-35.98,111.1-179.8,142.34-105.77Z"/>
  <path class="cls-71" d="M859.39.89c-6.59,39.66-49.88,58.17-86,59-41.38-9.34-92.58-21.31-137.78-5.16-38.12,11.45-59.1,29.33-87.95,55.1-1.39,1.24-3,1.75-4.27.06-22.5.17-44.75,8.59-67,1,7.56-1.45,16.07.87,24.48-1.02,13.37-1.66,25.5-9.35,38.1-5.07,2.72-.16,3.23-3.37,4.88-4.96,2.33-2.24,6.57-4.12,7.13-7.92.28-1.87-3.67-3.24-2.59-6.03,8,1.57,7.28-2.65,10.3-5.71,11.31-9.75,26.15-14.79,24.59-31.75.58-6.49-6.13-4.27-8.35-7.59-1.54-2.3-1.57-9.3-3.54-12.42,2.95-3.66,6.1,1.33,6.93-4.81,2.76-1.2,3.29-3.99,4.75-5.83,1.99-1.3,4.84.8,7.28-1.41,2.68-2.41,3.23-11.51,10.03-8.49l-1.99-7h261Z"/>
  <path class="cls-19" d="M1921.39,83.89c-3.57,15.15,10.68,243.58-13,246-22.27-53.03-47.6-103.46-75-154-3.19.38-5.11-3.74-3-6,10.13-.66,6.92-17.95,10.54-25.96,6.21-18.85,21.46-38.81,36.45-51.55,26.94-22.99,9.86,3.72,44.01-8.49Z"/>
  <path class="cls-44" d="M1921.39,755.89c-3.16.03,6.82,145.03-4.78,131.65-.87,5.46-1.58,9.8-6.88,12.67,3.13,3.96,4.2,7.32-1.18,9.69.3,12.71-6.7,13.38-14.75,5.31l-17.18,7.33c-38.87-20.56-69.88-57-77.71-100.7,35.97-26.67,80.15-50.32,122.48-65.95Z"/>
  <path class="cls-9" d="M1390.39,977.89c13.18,18.33-4.4,44.6-12.43,62.57-6.07,12.27-7.9,24.95-5.61,38.37,0,0-1.96,2.07-1.96,2.07h-133c-4.79-1.15-7.98-12.4-5-16,0,0-.8-9.83-.8-9.83-1.72-1.05-1.2-2.03.46-3.03,24.16-3.29,47.63-16.63,66.72-31.67,15.62-11.29,26.34-28.02,26.62-46.47.69-2.8,16.16-5.09,16.5-1,.56-4.87,23.96-1.75,27.53-2,0,0,1.47,2,1.47,2,3.28-3.95,17.24,1.2,19.5,5Z"/>
  <path class="cls-13" d="M372.39,1080.89h-161c-1.24-98.28,155.54-91.8,161,0Z"/>
  <path class="cls-58" d="M1514.39,1080.89h-96l-1.49-2.82c26.67-65.65,41.12-68.07-29.38-101.96,6.89-10.03-22.07-10.48-25.36-26.57-26.31-9.4-20.21-23.54-31.75-30.49-4.31-5.43-8.12-9.02-14.21-12.09,0-5.46-1.82-9.08-5.47-10.85-9.79-2.35-15.88-6.97-19.21-16.8-2.15-28.15-17.92-25.03-18.17-43.15-8.64,4.22-8.76-14.4.21-10.11,8.47-18.83-3.17-44.04,12.28-60.41-2.67-5.1-1.5-17.06,5.53-12.74-25.99,109.1,50.55,191.14,143.68,231.83,34.19,22.7,61.99,59,79.32,96.17Z"/>
  <path class="cls-41" d="M1325.39,973.89c7.11,40.71-59.65,74.72-92.95,80.05-.55.56.28,9.03-.05,10.95-2.24-.99-3.3-3.19-3.17-6.62-25.05,3.14-50.74,11.26-72.83,22.62,22.38-61.43,107.3-105.26,169-107Z"/>
  <path class="cls-11" d="M1418.39,1080.89h-48c-9.69-37.91,32.3-65.07,20-103,75.19,23.98,48.25,47.8,28,103Z"/>
  <path class="cls-21" d="M1604.39.89c13.76,4.19,25.24,15.01,39.56,17.66,0,0,.44,2.34.44,2.34,5.3-.04,10.45.92,13,6,5.1-.91,13.15,4.18,15,9-4.88,1.48-8.65-2.49-12.75-2.76-2.79-.19-7.51,2.27-9.72-1.27-1.24-2,.23-5.49-4.04-5.02-4.55.5-1,4.08-.56,6.62,2.22,8.21-6.17,7.61-11.42,5.41-11.09-.66-20.87-.73-31.92-.06-7.98-2.42-5.35,2.14-3.06,7.05,1.83,2.8,4.28.96,5.81,1.35,6.33,5.04,6.38,3.11,4.64-3.28.8-1.07,13.03-1.31,11.57,4.99-1.75,6.82-4.48,2.19-8.26,6.9-2.28.65-3.85-2.4-5.91-2.63-.99-.11-11.95.8-12.46,1.16-2.38,1.72-2.14,12.81.08,15.57,10.88-5.59.4,7.27,1.9,12.92-3.75-2.35-15.42,6.18-16.29,6.02-7.62-1.43,9.83-11.99.44-23.51-2.19-2.82-8.35-1.56-10.18-3.82-1.71-7.81-1.77-10.37-8.92-16.15-3.11-1.41-7.29,4.28-8.97,2.53-2.65-2.76,6.11-5.74,8-5,.88-3.11-2.65-5.56-2.08-8.33,7.28-3.71,8.85-7.72,1.49-16.64-2.25-.68-4.31,2.9-6.91,2.91-10.81.06,2.8-15,1.49-19.93h50Z"/>
  <path class="cls-5" d="M1899.39.89h22v76c-6.67-8.28-5.28-1.18-8.47-.94-5.48-.42-12.18-2.17-17.07,1.9-2.58.49-17.52.87-19.78.06-1.39-4.99-8.04-7.43-11.68-10.52-10.54-10.04-14.03-27.81-5-40.01,9.62-11.47,31.39-14.73,40.01-26.49Z"/>
  <path class="cls-55" d="M986.39.89c15.62,43.04-47.08,84.49-72.8,40.3-7.98-12.89-11.22-25.26-7.2-40.3h80Z"/>
  <path class="cls-38" d="M1921.39,887.89v193h-18c5.83-47.46,7.42-108.06-18-149.84-6.38,1.53-15.41-6.02-15-12.16,6.55,5.08,17.87-5.18,23.5-5.65,3.2.01,6.3,7.73,10.8,4.73,2.53-1.68.99-6.66,2.17-9.11.75-1.54,3.46-1.65,3.6-2.56.36-2.44-4.03-5.81-3.01-7.31,8.47-2.44,4.86-12.55,9.43-15.08.83.03,1.99,4.58,4.5,3.98Z"/>
  <path class="cls-35" d="M762.39,1000.89c11.18,27.3,27,47.85,25,80h-50c-2.14-2.49-.26-4.61-.11-6.57-3.56-.6-1.01-5.05-1.11-7.7-.05-.66-2.43-8.46-2.8-8.74-.49-.37-6.59,3.62-8.56-2.96-2.25-7.52,4.43-4.54,5.63-5.44,2.06-1.54-1.48-5.37,5.94-2.6.97-7.38-1.3-17.87,7.79-20.21.58-3.83.83-5.43,5.08-5.92-.9-12.65,4.59-10.92,5.15-19.87.99-1.01,6.54,2.51,8,0Z"/>
  <path class="cls-4" d="M1083.39,1080.89h-81c3.34-54.1,79.4-53.35,81,0Z"/>
  <path class="cls-2" d="M48.39.89c3.11,27.65-15.6,35.42-29.43,52.07-2.17,8.35-3.47,4.3-8.93,3.07-2.26.43-4.78,6.89-8.65,5.85V.89h47Z"/>
  <path class="cls-3" d="M1921.39,464.89v72c-40.52,19.98-44.43-65.78,0-72Z"/>
  <path class="cls-51" d="M1232.39,1064.89c1.05,5.68,1.95,10.91,5,16h-79c17.3-18.75,49.42-18.33,72.52-25.98.19,3.54.89,6.77,1.48,9.98Z"/>
  <path class="cls-28" d="M1633.39.89c6.57,3.68,13.28,7.64,20,11,5.34,4.39-3.25,12.09-9,9-13.88-3.78-28.12-11.62-40-20h29Z"/>
  <path class="cls-56" d="M1921.39,361.89c-2.62-7.87-18.61-26.29-13-32-.14-5.65,8.5-18.13,13-22v54Z"/>
  <path class="cls-37" d="M1205.39,584.89c99.25,25.98,124.88,73.5,85.99,168-9.54,1.43-2.17,14.04-3.02,14.96-5.42-1.51-7.05,12.93-8.7,16.81-2.31,10.72-.36,18.68-.29,28.73.05,7.23-2.86,7.72-3.86,11.23-.3,1.06,1.45,5.45-.62,5.25-1.43-.14-7.2-8.89-5.5,5.03,3.17,1.07,2.91-1.77,3.11-1.86,3.9-1.81,3.54,11.64,5.05,14.19,16.81,6.02,10.02,34.19,24.5,43.5,8.7,3.59,16.03,3.94,15.82,15.18,7.9,3.17,12.22,11.29,19.56,15.48,2.57,2.89.42,7.8,4.91,12.06,1.42,1.35,13.69,11.98,14.52,12.48,6.85,2.85,7.11-.38,8.65,7.35,4.11,7.81,18.84,10,24.44,16.57,3.3,3.87-3.75,5.33,1.44,8.05-43.08-12.44-92.93-2.47-133.99,14.51-9.3,3-31.19,19.2-39.01,15.49-89.13-49.23-185.06-154.5-197.58-259.86,1.14-46.71,25.39-92.12,54.58-127.14,34.55-28.08,85.2-48.18,130-36Z"/>
  <path class="cls-62" d="M588.39,468.89c1.46-1.05,2.75-.42,3.85,1.91,4.25-3.03,8.69-2.72,5.35,3.31-41.72,38.61,68.51,83.34,86.34,111.82,33.29-19.86,68.08-46.87,110.46-38.38,59.35,8.25,107.83,60.46,78.75,120.59-119.78,300.12-522.81.48-284.74-199.25Z"/>
  <path class="cls-6" d="M774.39,64.89c198.79,135.87-5.19,468.68-203,300,5.57-5.06,3.68-15.69,7.71-18.14-1.98-7.96,2.52-12.49,10.67-11.33,3.55-3.29,7.83-4.8,12.55-5.62-18.48-13.93,29.9-13.64,45.66-32.44,35.1-24.48,7.77-61.63,23.58-94.59,2.84-5.66,20.37-25.42,22.8-10.85,9.44,43.46,37.69,43.42,51.11-.57,6.57-24.92,17.15-89.98-6.69-106.81,1.08-3.31,30.78-28.19,35.6-19.65Z"/>
  <path class="cls-22" d="M1049.39,452.89c35.36,38.79,53.78,108.03,33.97,159.54-22.52,30.67-46.84,64.87-56.66,103.27-5.81,28.9-.16,60.58-26.3,80.7-26.68,23.59-75.64,15.46-87.74-20.29-13.31-39.3,11.47-104.58,9.72-148.72-1.85-46.61-12.66-106.78,12.01-149.51,11.39-41.06,90.52-69.9,115-25Z"/>
  <path class="cls-20" d="M546.39,1031.89c-7.51,2.42-27.46-17.66-35.16-22.73-3.43-2.86-23.35-8.44-23.29-14.3-7.14-1.4-22.56-2.79-23.56-10.97-42.17-41.35-36.77-94.92-11.21-141.72,17.41-103.56,99.31-97.42,164.73-36.29,56.25,59.09,36.74,250.89-71.52,226.01Z"/>
  <path class="cls-23" d="M1206.39,258.89c-3.01.34-7.1,1.88-10,3-13.81,13.28-35.98,18.21-54.29,24.8-13.25,5.09-26.88,12.06-33.89,24.99,0,0-2.82,1.21-2.82,1.21-68.49-5.3-121.15-70.92-132-136,4.17-21.5,26.2-47.15,45.02-57.48,7.53-3.22,22.61-4.82,27.98-8.52,72.75-12.91,155.9,11.62,171.98,97.52,1.73,21.77-19.34,29.65-11.98,50.48Z"/>
  <path class="cls-25" d="M973.39,176.89c2.82-.59,1.89,1.39,2.3,3.15,3.74,16.28,8.52,32.8,16.53,47.52,22.53,43.1,65.14,77.7,113.17,85.32.84,10.86-5.42,22.11-4.75,33.69,0,0-2.25,2.32-2.25,2.32,2.86,45.63-52.58,12.28-49,104-35.14-41.67-91.78-15.22-115,25-25.55-100.82-15.61-211.71,39-301Z"/>
  <path class="cls-43" d="M415.39,279.89c68.16,78.55,58.21,228.6,32,331-4.59,10.63-3.82-9.06-7.04-11.71.25-1.17,1.78-15.65-1.7-13.72,2.76,12.92-4.91,16.58-6.14,2.1-1.23-.82-12.34-3.16-13.98-1.43-1.35,6.1-7.18,8.02-17.47,5.77-16.55,13.34-15.14,1.71-25.08.37-9.76,3.09-20.4,1-21.8-10.41,6.69-19.11,12.77-38.45,18.22-58.02-11.47-5.34-19.57-15.8-22.47-28.7.9-22.7-28.33-71.36-6.55-84.24-.6-8.48,7.67-8.31,12.67-3.4,3.68,11.19,5.43,12.62,5.26,4.28.91-4.86,3.54-10.21,7.74-13-4.92-10.75,6.92-33.32,11.66-10.62.29.07,4.49-3.58,4.6-3.86-4.13-16.54-16.32-10.57-10.56-24.88-1.43-13.81-15.45-32.23,9.97-28.56,3.91-2.33,6.5-2.3,10.42-.07,8.9-2.38,19-17.65,4.05-21.56-1.21-3.16-2.65-6.3-4.3-9.43,3.52-22.37-15.21-10.82-8.65,4.3,2.04,3.43,1.77,5.54-.81,6.34,5.4,28.45-23.02-6.88-11.25-17.83-.43-7.9,1.65-12.4,6.26-13.48,3.92-5.83,8.42-3.18,12.51.7,4.11,1.62,15.43,3.63,18.23-.01l4.21.09Z"/>
  <path class="cls-34" d="M875.39,595.89l-2.52,1.02c-13.37-16.2-26.36-28.68-45.81-37.2-59.15-28.47-95.17.59-143.98,28-1.53-.49-10.67-12.45-13.22-14.8-25.11-16.32-71.13-47.04-84.14-73.86-3.9-11.59,7.45-19.73,11.65-29.17l-5.39,3.97-3.6-4.97c110.48-76.36,262.92-.57,287,127Z"/>
  <path class="cls-47" d="M773.39,59.89l1,5c-8.91-1.79-24.47,12.44-31.73,17.77-1.32,1.13-3.1,1.04-1.27,3.23-3.06,3.48-14.08-6.17-23.9-.81.35,2.1-.23,3.46-1.72,4.08-27.52,6.34-47.32,23.29-66.07,42.77-12.33-6.24-26.85-14.56-41.98-14.98-4.71,4.02-10.53,6.53-17.45,7.55-46.64,26.39-24.88,85.26-36.9,127.16,3.66,10.73,12.43,19.82,16.8,30.65-1.14,7,1.28,11.15,7.27,12.45,13.85,16.47,20.01-.03,27.72,10.44-3.12,12.29,10.15-2.75,18.35-1.56,1.96-4.7,5.73-7.72,11.3-9.03-4.27-4.28-1.69-7.39,3.56-8.02l2.65-4.56c17.21-6.01,7.7-22.38,15.6-18.43,6.82,12.6,9.13,8.26,6.94-13.02.16-3.71,1.44-5.94,3.82-6.68,7.54,32.71-10.21,54.94-38.74,68.76-4.21,1.77-26.79,7.68-27.82,9.18-3.3,4.79,7.21,7.38,4.57,10.05-5.16-.62-11.69,2.55-14.98,5.4-1.53.58-5.82-.59-8.04,1.1-1.12.86-3.53,8.58-.06,7.56,1,2.92-3.14,2.41-3.74,3.11-1.11,3.96.37,9.34-3.25,13.26-1.1,2.21-.81,2.93-3.94,2.56-167.83-151.34,2.34-383.67,202-305Z"/>
  <path class="cls-31" d="M434.39,751.89c-21.47,17.5-4.1,44.06-5.96,67.54-1.79,134.17-134.34,127.56-215.57,61.48-18.05-11.76-43.34-36.03-64.47-30.02,58.08-2.27,111.73-20.96,161-51,2.86-.35,3.54,1.32,2.91,3.92l4.41,1.3c1.21-6,7.06-3.49,9.22.85,15.39-3.07,12.69,7.39,32.56-5.98,11.66,2.66,18.14-1.84,24.28-10.84.11-8.69,5.59-9.43,16.45-2.23,6.16-2.93,10.47-2.21,12.93,2.19-2.63-4.26.76-10.25-2.05-13.94-8.66,1.15-9.74-14.27-.82-7.2.64-14.87,27.24-27.39,25.1-16.05Z"/>
  <path class="cls-27" d="M231.39,135.89c78.94,12.52,152.51,71.83,189,142,1.04,4.09-5.63.97-8.05,2.2-61.83-3.74-109.09-82.54-173.99-63.35-6.21-4.82-17.16,8.08-19.49,9.23-2.03.16-3.19-1.77-5.03-2.04-5.48-.81-11.58-.01-18.01-1.95-2.04-.62-1.16-2.8-3.93-2.11-1.14,4.85-8.78-.23-11.84.96-.44.11-3.67,8.14-4.66,3.54-.57-7.48,11.38-6.43,15.45-9.39,1.11-.05,4.03,1.43,4.54.91.73-1.95,3.4-11.77-1.98-11.01-.14,6.29-5.53,4.69-2.08-.57,4.77-3.37,4.89-3.46,5.85-9.15,1.14-2.27,3.72-4.33,4.18-6.82,3.1-20.42-8.44-9.43-4.43-20.44,2.32-5.38,12.6-8.15,13.39-9.17.27-.35-.48-7.46.1-8.84,5.33.5,2.45,3.96,7.6-.79,4.29.75,4.44,1.99,7.09-2.24,4-1.07,10.43,3.83,10.4-2.48-.02-3.58-3.98-5.51-7.09-6.52l2.99-1.98Z"/>
  <path class="cls-50" d="M434.39,751.89c-4.39-6.41-16.94,2.84-19.86,7.64-1.12,1.83-3.68,11.36-4.64,11.34l-5.49-3.98c.3.99,1.9,5.64,2.14,5.84,6.84-.05,7.78,3.85,6.12,12.55.18,1.94,3.37,3.65.21,5.61-3.54.89-4.13-3.91-5.13-4.08-13.32,5.28-10.54-1.8-20.63-2.78-4.87,1.36-1.41,6.58-1.71,6.85-4.5-.92-5.42,5.94-8.46,9.06-6,5.65-11.36.67-18.03,1.98-5.15,1.47-17.42,13.12-25.05,4.96-3.22-.58-6.74,1.49-8.78,1.08-.89-.18-2.53-5.92-6.68-4.07,3.57,11.59-10.02-7.25-8,7.99-9.88-2.21-5.54,2.58-6,3-.63.57-3.67-1.14-5.26-.81-1.69.35-4.49,4.31-6.73,2.32,4.61-6.12,9.3-2.03,12.51-10.49,2.08-1.73,8.23-.78,4.49-6.01,24.62-14.84,49.89-30.17,71-50,6.13,2.78,25.26-17.41,28.21-23.8,4.54-11.35,10.14-21.92,16.78-31.71,5.1-2.6,5.52-2.92,8.37-8,5.48-1.54,9.6-4.32,12.38-8.34,5.17-10.37,9.53-15.05,21.39-17.47-2.03-2.48-2.09-5.61-.17-9.4l-.96-8.44c9.83-16.11-28.2-13.98-17.99-25.83,23.5,17.68,59.13,11.44,65.88,46.62,3.2,16.68.4,66.46-9.44,80.32-15.38,19.63-48.99,10.28-70.44,8.06Z"/>
  <path class="cls-24" d="M397.39,601.89c13.47-3.35,30.61,1.68,43.95,6.48,1.56,1.59,2.97,4.99,6.05,2.52-1.11,20.08,15.74,11.55,22.85,24.73.76,2.77-1.73,4.91-1.93,7.78.87,4.39,1.19,10.32-.74,14.05,9.56,5.7-8.93,6.66-11.7,9.41-6.39,8.13-9.17,18.12-21.47,21.53-2.8,4.45-.1,5.43-5.93,6.03-11.65,10.34-17.49,43.82-36.55,51.49-3.89,3.16-7.45,10.93-11.52,3.98,4.95-4.65,21.13-20.77,19.85-27.26-12.37-18.66-41.38-33.82-47.8-57.29-2.71-15.1-9.5-42.34,10.94-47.44,1.95-7.39,27.88-21.3,34-16Z"/>
  <path class="cls-64" d="M464.39,983.89c5.99,6.19,17.91,7.79,25.02,9.51,1.98,7.34,15.69,8.85,22.9,14.07,10.5,6.68,23.12,20.59,34.08,24.41,2.05,74.24-112.83,19.75-82-48Z"/>
  <path class="cls-22" d="M1577.39,307.89l3.63.91c7.4-1.66,11.32.01,11.76,5.03l11.41,2.82c5.02-3.35,14.26-3.87,14.5,4.11-2.43,15.18-26.02,16.25-33.63,28.75-5.72-4.65-9.85-1.19-12.4,10.38-14.62,6.6-18.44,11.55-15.4,27.69-1.77,9.19-1.8,18-.09,26.42,3.79,2.63,5.66,5.37,5.04,10.22,9.88,6.84,1.84,12.87-6.99,14.17l-3.75,7.59c12.11,25.81-9.22,58.18-29.34,74.25-9.09,2.56-12.74,4.4-12.74,14.65-99.1,23.05-212.02-84.76-187.94-184.51-.07-3.93-3.52-15.63-5.06-19.49,3.18-16.25,8.78-29.37,18-43,4.25-4.54,15.41,5.43,19.93,6.73,9.59,6.3,11.17-18.65,22.19-25.42,7.81-.01,16.11-4.89,13.43-13.62,0,0,1.44-2.19,1.44-2.19,28.52-.58,56.29,12.11,86.55,12.28,37.76,1.32,58.95,40.06,96.49,40.14,0,0,2.96,2.07,2.96,2.07Z"/>
  <path class="cls-58" d="M1765.39,272.89c18.3,18.57,22.45,47.94,37.06,69.55,0,0-1.06,2.45-1.06,2.45,3.04-.21,3.55,1.28,1,3-21.98,54.17,1.57,81.34,16.71,129.79,15.99,84.62-93.06,114.43-157.92,99.91-28.29-6.32-67.08-16.42-93.47-27.53-13.16-5.54-26.1-15.06-40.33-16.17,97.82-19.06,170.33-110.72,140.8-209.97,9.9-3.88,21.09-5.4,28.48-13.55,25.53-.12,49.38-22.37,66.89-39.2l1.84,1.71Z"/>
  <path class="cls-57" d="M1801.39,818.89c-3.03,12.62,16.37,46.42,22.77,57.73,16.12,19.43,39.49,34.27,57.18,52.71,9.26-3.53,13.26,14.92,14.05,21.56-12.22-21.97-21.95-26.26-35.42-1.91-26.29,56.34-86.69,124.15-154.81,116.18-11.58.5-26.31,7.72-37.27,7.72-14.22-3.6-29.19-3.65-44.01-2.97-1.69-.02-4.45.64-5.49-1.02,24.72-104.17,89.11-197.82,183-250Z"/>
  <path class="cls-48" d="M1577.39,307.89c4.2-4.61,13.03-2.4,18.87-4.31,4.31-14.82,26.31-.63,16.48,8.45,17.05-1.36,52.54-7.52,56.65,14.86,35.72,98.44-58.57,209.84-160,208-3.82-.83-.28-10.01.96-11.54,2.18-2.69,9.69-3.77,12.99-6.01,14.67-14,34.8-42.85,28.83-64.73-4.31-6.62-1.88-9.25,1.45-15.5,1.73-1.77,9.64-1.86,10.64-4.89,1.76-5.34-3.47-5.67-3.87-7.06-.48-1.64.34-3.74-.72-6.05-9.93-6.91-4.61-20.81-4.42-30.89-2.09-16.76-1.04-22.12,15.89-29.59,2.13-2.67.14-8.18,6.31-12.19,5.76-3.74,6.37,1.44,7.45,1.42,5.53-8.57,13.78-12.15,23.43-16.55,4.36-2.96,10.76-7.93,7.47-13.34-4.05-6.67-7.17.81-11.73.65-.66-.02-12.2-2.8-12.73-3.2-1.44-1.08-.34-3.76-1.54-4.67-2.84-2.14-9.84.86-12.41-2.89Z"/>
  <path class="cls-36" d="M1132.39,421.89c-11.87,41.79,27.05,68.52,45.17,99.33,11.73,19.69,14,46.87,27.83,63.67-47.17-5.98-91.36,6.59-127.67,36.83-1.76.88-2.62,2.38-2.33-.83,18.04-22.19,16.64-76.48,7.48-101.98-7.84-18.25-21.32-51.6-33.48-66.02-6.85-41.78,8.7-69.03,47.55-85.96,1.87-2.68-1.17-14.7,1.45-18.04,2.79,25.05,4.52,54.43,31.81,66.41,2.92,2.12,5.09,3.74,2.19,6.59Z"/>
  <path class="cls-39" d="M1196.39,261.89c12.71,28.08-6.45,59.66,3.47,89.03,4.42,18.85,16.15,25.79,8.3,47.24-6.73,18.4-24.76,33.9-45.17,31.62-7.71,1.02-27.57-13.55-30.61-7.9.21-4.78-6.95-6.26-10.5-9-30.87-23.33-27.14-66.84-16.5-100,17.15-32.43,63.58-31.83,91-51Z"/>
  <path class="cls-61" d="M1908.39,329.89c.08,3.17,2.77,10.72,4,14-5.55,6.49-11.91,11.42-20.01,14.49-30.98,12.82-62.11,4.86-89.99-10.49-.03-1.17-.57-2-1-3-.94-1.87,1.06-3.34,1.47-1.85,10.43-55.25,9.07-117.1,30.53-167.15,32.23,47.42,55.01,100.39,75,154Z"/>
  <path class="cls-7" d="M1566.13,834.13c54.11-4.08,104.24,38.16,47.56,81.57-52.53,35.23-103.54-59.97-47.56-81.57Z"/>
  <path class="cls-15" d="M1541.15,639.15c43.32,1.86,28.44,83.84-14.24,75.73-45.66-3.4-66.65-42.66-22.78-68.76,7.28-2.82,28.41-5.88,37.02-6.97Z"/>
  <path class="cls-46" d="M1407.13,756.13c73.7.7,10.99,101.02-21.52,42.03-5.67-16.07,3.11-39.13,21.52-42.03Z"/>
  <path class="cls-66" d="M1488.15,920.15c44-7.76,53.29,42.97,9.24,50.24-45.64,10.18-40.28-46.02-9.24-50.24Z"/>
  <path class="cls-32" d="M1347.14,520.12c14.45-2.05,21.04,9.48,23.78,21.73,3.36,15.03-2.58,20.98-18.06,19.06-20.46-2.53-29.52-37.42-5.73-40.79Z"/>
  <path class="cls-53" d="M1258.15,396.16c23.99-5.42,32.74,47.81,5.84,44.65-17.81-1.12-25-41.72-5.84-44.65Z"/>
  <path class="cls-42" d="M1368.15,652.08c26.78-.36,19.62,46.32-5.25,33.81-11.44-7.87-7.82-31.31,5.25-33.81Z"/>
  <path class="cls-29" d="M1284.18,462.09c14.55-1.31,15.06,16.7.04,21.12-16.1,4.74-16.03-19.68-.04-21.12Z"/>
  <path class="cls-21" d="M1738.39,82.89c11.66,5.22,21.19,17.14,32.48,24.06,4.44,7.15,8.89,14.25,13.36,21.3,6.71,4.1,8.25,12.64-1.78,8.74-25.41,32.97-22.87,84.89-18.17,124.6,2.89,6.93,2.21,10.42-2.74,13.94-25.78,26.31-67.02,56.53-97.67,20.3-24.17-27.87-57.37-46.6-86.48-67.95-1.15-7.05,2.13-4.71,4.96-6.59,13.56-8.64,18.15-9.55,33.03-8.43,1.22-2.5-.23-9,.12-10.34,4.88-4.2,5.82-2.29,8.04-10,3.1-5.42,8.97-3.15,12.49-7.56,6.51,4.09,2.33-.36,9.87-1.2,6.07,0,6.09,6.99,12.8,4.92,3.43-1.06,2.09-4.68,2.88-5.63.23-.28,4.98-1.15,6.53-1.98,19.13-10.65-2.31-8.27,20.16-15.32.98-1.12-.83-5.21-.65-7.15,2.51-4.42,1.13-8.35-.71-12.72-3.15-3.72-11.07-3.09-13.43-7.47-1.13-.47-8.99,2.05-4.93-3.9,3.57-5.24,10.33-2.39,13.88-4.12.61-.3,7.67-7.85,9.51-9.53,2.38-2.18,14.7-12.78,16.02-15,.72-1.22-1.34-3.6,2.05-6.9,2.48-2.41,5.34-2.11,7.1-3.39.5-.37,8.43-8.2,8.8-8.7,4.16-12.56,6.57-1.64,12.51-3.99Z"/>
  <path class="cls-33" d="M1577.39,227.89c20.8,10.23,44.86,27.88,62.92,42.58,16.19,13.18,33.5,37.94,54.08,41.42,3.25,9.8-25.41,9.64-25,15-6.83-14.62-21.06-12.82-34.49-15.1-5.58-.17-19.54,3.31-23.87,1.96-4.55-1.59,9.27-8.02-2.54-12.5-.81-.56-.92-2.18-1.8-2.4-6.94-1.79-7.1,5.51-9.3,6.59-46.21,13.46-68.77-23.46-105.21-34.83-27.92-6.73-62.73-6.4-90.46-16.5-5.24,1.91-3.76,1.8-9.32.78-1.61,1.13.79,6.88-.49,9-3.32,3.27-9.78,8.02-14.81,7.21-6.03,1.69-11.75,24.02-16.73,26.29-5.71,2.6-19.08-9.54-25.97-9.49,50.55-72.91,163.76-100.73,243-60Z"/>
  <path class="cls-69" d="M1798.39,124.89c-1.28,3.44-2.23,7.09-2.82,10.97-2.62,1.2-6.3,4.02-6.18-.97-15.48-10.29-10.8-16.97-19.96-26.54-35.99-28.65-71.02-59.57-112.04-81.46,11.87-25.14,110.08,52.66,120.97,68.53,7.21,8.62,13.57,20.06,20.03,29.47Z"/>
  <path class="cls-21" d="M1586.68,188.6c-3.33-4-3.66-11.3-.72-15.65,6.88-10.2,7.37-1.17,13.16,1.7,6.21,3.17,12.83-1.8,17.21-5.85.66-.95-3.14-4.76-1.93-6.91,2.39-2.33,5.4,4.66,5.69,6.63.42,2.86-.31,3.07.86,7.34,1.58,5.73-6.19,1.11-8.17,1.03-9.83,1.52-8.94,22.59-26.1,11.71Z"/>
  <path class="cls-21" d="M1612.4,146.87c-1.38-2.14,5.71-4.94,6.66-5.83,6.02-1.66,2.51,8.14-1.31,8.78-.3.05-5.16-2.72-5.36-2.95Z"/>
  <path class="cls-21" d="M1592.5,117.77c-2.91-4.74,5.89-9.16,6.89-5.37.77,2.9-5.28,8-6.89,5.37Z"/>
  <path class="cls-21" d="M1618.13,155.63c-2.62,2.75-4.4-1.07-5.71-3.24,2.97-3.66,9.6-.82,5.71,3.24Z"/>
  <path class="cls-21" d="M1627.39,169.9c1.59,2.22-4.28,4.6-4.99,1.48s4.34-2.38,4.99-1.48Z"/>
  <path class="cls-21" d="M1570.39,69.9c.15.18-.06,1.36,0,1.98-2.28.4-4.14-.86-4.99-2.98.91-.13,4.77.74,5,1Z"/>
  <path class="cls-70" d="M343.39,410.89c-14.35,20.24-.6,36.93,3.76,56.74,2.99,21.29,5.47,44.62,27.02,55.87-4.72,20.37-11.81,42.03-19.78,61.4,2.84,2.48-1.1,7.45-4,8,1.96,5.04-10.14,28.9-16,29,1.62,3.83-3.62,6.41-7,7,4.01,7.89-31.56,12.04-38.01,14.49-22.25,4.63-46.36,18.36-68.86,13.38-1.45-2.23,1.59-10.16-1.13-12.87-6.72-23.81-4.64-53.76-21.93-74.82-.73-4.04,1.77-3.39,2.69-6.92,9.05-22.77,24.29-40.99,35.6-62.19,17.55-17.95,29.46-41.3,44.64-60.07,4.61,19.2,1.9,83.42,39.88,71.99,9.53-2.99,21.09-8.58,18.99-20.09-4.65-23.18-10.41-46.28-17.28-69.29-2.78-8.43,2.18-18.55,11.78-19.59,3.4-.31,13.61,4.03,9.63,7.98Z"/>
  <path class="cls-59" d="M197.39,565.89c25.18,35.73,30.07,100.22,12.98,139.48-42.82,28.52-103.67-28.14-121.29-65.67-4.73-13.49-5.66-28.42-19.7-36.8,8.85-44.81,97.37-71.18,128-37Z"/>
  <path class="cls-43" d="M350.39,592.89c10.17-8.4.16,19.13,3.01,23.68,2.94-.67,7.58-.52,9.99,1.32-2.71,2.13-10.57,8.5-12,11-3.51-12.15-9.12-2.26-10.6,5,.18,6.01.39,6.11-4.46,9.44-1.42,5.85-3.71,8.55-9.46,10.59-3.81.06-1.76-4.34-2.04-6.18-.69-4.61-3.08-8.98-2.45-13.85,2.93-5.7,16.42-6.89,11.25-9.9,6.28-10,12.42-19.97,16.75-31.1Z"/>
  <path class="cls-63" d="M218.39,229.89c73.21,28.83,93.47,100.69,102.95,174.6-1.56,4.37.16,9.36-6.19,9.93-17.15-7.69-24.48,15.05-32.47,25.59,0,0-2.29-.13-2.29-.13-7.86,12.23-14.91,26.35-23.58,37.92-7.03,9.37-16.12,18.51-23.42,28.08.26-56.69-40.09-123.97-96-142-44.17-51.23,12.68-151.17,81-134Z"/>
  <path class="cls-10" d="M415.39,279.89c-5.06.6-3.55,3.11-5.65,3.84-2.51.88-14.87-.99-17.59-2.1-3.44-2.32-6.76-7.01-10.41-.93-1.07.68-3.87.78-4.22,1.31-.31.46-.84,8.73-1.4,11.1-5.27,6.81-1.11,20.29,5.3,25.26,9.35,4.42-3.15-10.23,4.97-9.97-3.56-3.12-4.37-17.14-1.55-19.56,5.24-3.36,8.45-6.27,12.42.78-2.49,19.18,4.82,8.26,2.21,17.13,1.26,1.92,9.23,4.56,9.93,8.69.63,3.73-7.16,15.81-10.96,17.01-4.7,1.49-5.9-1.51-8.54-1.51-10.72,5.99-19.5-5.42-18.21,11.3,3.68,7.79,6.55,14.96,3.64,26,4.06,2.46,6.38,1.33,7.87,8.35,6.17,7.5,4.77,8.59-2.28,14.28-3.87-2.1-2.69-6.9-4.47-9.57-3.16-4.75-4.34,3.39-4.71,4.4-.61,1.63-2.13,3.25-2.33,4.77-.36,2.8,1.98,7.18,1.69,9-6.13,5.01-8.92,10.92-7.7,19.42-11.23,2.09-2.92-13.98-16.94-12.98.01.93-1.63,4.65-3.06,4.98.63-3.08-7.76-6.1-9.41-6.02-1.18.05-13.13,5.83-11.59,9.02-10.68-68.04-30.32-153.19-104-184,60.35-60.18,129.23,43.77,197,50Z"/>
  <path class="cls-12" d="M1810.39,142.89c8.5,14.75,35.19,33.58,15,49-5.55-1.31-21.66-37.95-17-42-3.33-3.26-2.75-10.96,2-7Z"/>
  <path class="cls-54" d="M1672.39,20.89c.56,3.22-1.62,1.69-3.48,1.97-12.06,3.64-12.9,4.37-24.52-1.97,3.83.91,10.72-5.08,9-9,6.24,3.12,12.78,5.77,19,9Z"/>
  <path class="cls-14" d="M1798.39,124.89c4.07,5.93,7.93,12.1,12,18-2.88-1.16-2.32,4.46-2,7-10.83-1.75-21.19-18.05-10-25Z"/>
  <path class="cls-60" d="M737.38,1058.88c-1.99-1.13-1.6-5.98-1.98-7.99,3.08,1.22,1.81,5.36,1.98,7.99Z"/>
  <path class="cls-45" d="M741.39,85.89c26.63,24.14,12.97,104-6.02,130.47-15.85,18.65-30.17,9.77-38.46-9.49-3.03-5.29-2.68-16.96-7.97-18.96-20.02,11.4-21.71,35.02-21.54,55.98-4.32,8.22,4.36,46.17-13,20,2.28,9.58-4.68,16.07-11.96,19.54-3.17,5.55-2,4.37-7.56,6.44-1.97,2.45,5.86,4.07-.56,7.44-1.81.95-4.17.65-5.91,2.09-3.22,6.13-3.89,6.64-11.08,6.92-3.38,1.05-6.09,6.33-11.37,5.59-5.68-.79-2.26-6.69-2.56-7.01-12.43-6.32-5.86,10.22-27.04-8.48-8.83-2.08-7.67-8.05-8.51-15.49-5.32-12.51-23.66-26.6-12.7-40.81,1.2-38.3-5.89-89.34,29.75-115.25,6.87-4.35,16.74-3.63,22.22-9.82,10.01-.73,25.18,6.05,34.22,9.39,2.79,1.49,4.28,6.38,8.41,5.49,16.83-20.6,40.66-36.57,66.65-43.08l-2.99-2.97c12.86-4.53,15.87-1.9,28,1.99Z"/>
  <path class="cls-47" d="M601.67,358.62c6.56.52,7.3,4.39,5.82,9.67-.17,3.18,2.89,6.31-4.79,6.31-6.55,0-6.55-13.14-5.3-17.69-5.41.54-8.03,1.78-7-5.01l-4.99.99c.17-9.17,7.47-7.54,11.95-2.45,1.48,1.68,2.76,7.21,4.32,8.18Z"/>
  <path class="cls-67" d="M354.39,584.89c4.6.14,6.22,6.15,9.77,6.8,4.08.75,13.64-3.04,16.8-.88,6.48,9.98,12.97,3.71,19.13-.71,8.02-1.59,14.53,5,17.33-5.68,3.79-3.25,11.25,1.31,16.02.93,1.79,2.01,1.5,4.71,1.99,7.04.36,1.71-1.12,2.99,1.96,2.5l-.99-11.99c10.67,1.2,5.3,11.16,5.99,16.42,15.3,32.17-36.4-22.22-78.99,18.58-1.89,1.91-8.58-.34-8.97.02-.3.28-.44,5.87-4.03,4.97,2.43-9.28-1.44-13.96,2.47-23.03.67-1.58,1.24-9.78-2.47-6.97,1.21-2.67,3.12-5.86,4-8Z"/>
  <path class="cls-52" d="M224.77,183.52c.71.71,2.24,1.01,2.53,1.95,1.68,5.4-4.34,1.91-5.36,1.87-1.34-.05-5.92,1.2-6.55.54-2.55-3.36,7.67-10.83,9.38-4.37Z"/>
  <path class="cls-43" d="M409.39,601.89c-3.42-.29-8.58-.29-12,0,2.67-1.67,9.13-1.7,12,0Z"/>
  <path class="cls-18" d="M1789.39,134.89c7.78,3.34,12.69,9.67,19,15,1.82,15.45,13.6,32.34,18.81,46.2-11.83,47.94-11.53,104.64-25.81,148.8-7.78-12.29-13.8-25.6-18.14-39.36-4.86-11.3-13.58-21.69-17.86-32.64-10.68-27.35-7.25-102.5,8.18-127.32,12.34-17.79,5.56-7,15.82-10.68Z"/>
  <path class="cls-49" d="M322.39,413.89c4.05,24.59,12.47,42.82,16.73,65.77,14.46,41.69-59,60.86-58.72-23.28,0,0-.01-16.49-.01-16.49,5.24-8.15,15.45-28,25.48-29.03,7.55.3,12.38,4.14,14.52-3.97.29,1.76,1.71,5.24,2,7Z"/>
  <path class="cls-67" d="M327.39,628.89c1.8-1.72,5.6-5.34,7-7,6.9,6.85-1.31,7.58-7,7Z"/>
  <path class="cls-43" d="M352.4,394.87c-1.28-1.9,6.35-9.2,8.35-8.82,2.78.53,5.34,6.51,2.68,8.37-1.38.97-10.09,1.84-11.03.45Z"/>
  <path class="cls-43" d="M373.87,275.37c1.06,1.52,2.32,1.41,1.51,4.52-4.24,1.32-3.59-9.39-1.51-4.52Z"/>
</svg>