<?xml version="1.0" encoding="UTF-8"?>
<svg id="Calque_1" data-name="Calque 1" xmlns="http://www.w3.org/2000/svg" viewBox="0 0 1920 1080">
  <defs>
    <style>
      .cls-1 {
        fill: #9e3a53;
      }

      .cls-2 {
        fill: #7f3a4f;
      }

      .cls-3 {
        fill: #d0a159;
      }

      .cls-4 {
        fill: #553d50;
      }

      .cls-5 {
        fill: #ce6e49;
      }

      .cls-6 {
        fill: #aa3a53;
      }

      .cls-7 {
        fill: #6e394f;
      }

      .cls-8 {
        fill: #caa25b;
      }

      .cls-9 {
        fill: #cea05b;
      }

      .cls-10 {
        fill: #cb504f;
      }

      .cls-11 {
        fill: #218c99;
      }

      .cls-12 {
        fill: #b93e56;
      }

      .cls-13 {
        fill: #cb4950;
      }

      .cls-14 {
        fill: #c54b4e;
      }

      .cls-15 {
        fill: #543f51;
      }

      .cls-16 {
        fill: #c34354;
      }

      .cls-17 {
        fill: #a5a16a;
      }

      .cls-18 {
        fill: #949a6c;
      }

      .cls-19 {
        fill: #cf514e;
      }

      .cls-20 {
        fill: #1f8693;
      }

      .cls-21 {
        fill: #bc4153;
      }

      .cls-22 {
        fill: #6b8583;
      }

      .cls-23 {
        fill: #1f8b97;
      }

      .cls-24 {
        fill: #73394e;
      }

      .cls-25 {
        fill: #d1a75b;
      }

      .cls-26 {
        fill: #cca45a;
      }

      .cls-27 {
        fill: #c84851;
      }

      .cls-28 {
        fill: #22899a;
      }

      .cls-29 {
        fill: #8b3851;
      }

      .cls-30 {
        fill: #c9a657;
      }

      .cls-31 {
        fill: #5c3e51;
      }

      .cls-32 {
        fill: #d0a45a;
      }

      .cls-33 {
        fill: #953952;
      }

      .cls-34 {
        fill: #cf7a49;
      }

      .cls-35 {
        fill: #d0a059;
      }

      .cls-36 {
        fill: #a43b54;
      }

      .cls-37 {
        fill: #c94655;
      }

      .cls-38 {
        fill: #d2a555;
      }

      .cls-39 {
        fill: #5e3e52;
      }

      .cls-40 {
        fill: #c24253;
      }

      .cls-41 {
        fill: #cea45c;
      }

      .cls-42 {
        fill: #593f51;
      }

      .cls-43 {
        fill: #d8aa56;
      }

      .cls-44 {
        fill: #673f53;
      }

      .cls-45 {
        fill: #573d50;
      }

      .cls-46 {
        fill: #563f51;
      }

      .cls-47 {
        fill: #a73a53;
      }

      .cls-48 {
        fill: #a03951;
      }

      .cls-49 {
        fill: #bc3e54;
      }

      .cls-50 {
        fill: #d3a45b;
      }

      .cls-51 {
        fill: #643a4d;
      }

      .cls-52 {
        fill: #b1a76e;
      }

      .cls-53 {
        fill: #cd704a;
      }

      .cls-54 {
        fill: #535567;
      }

      .cls-55 {
        fill: #683b50;
      }

      .cls-56 {
        fill: #cd6548;
      }

      .cls-57 {
        fill: #cd7148;
      }

      .cls-58 {
        fill: #9f9f6b;
      }

      .cls-59 {
        fill: #7c374e;
      }

      .cls-60 {
        fill: #ad3c55;
      }

      .cls-61 {
        fill: #c04559;
      }

      .cls-62 {
        fill: #b43e53;
      }

      .cls-63 {
        fill: #22899b;
      }

      .cls-64 {
        fill: #9d9d6a;
      }

      .cls-65 {
        fill: #a09e6a;
      }

      .cls-66 {
        fill: #75394e;
      }

      .cls-67 {
        fill: #cf8c52;
      }

      .cls-68 {
        fill: #b93f54;
      }
    </style>
  </defs>
  <path class="cls-28" d="M419,0l1.25,3.82c-10.19,44.26,11.58,94.08,57.68,104.73l2.07,2.45c19.46.29,39.03-1.03,58.72-3.96l3.28,1.96-.13,3.19c-41.82,60.73-52.84,124.31-16.3,191.6,35.15,64.71,82.92,101.64,158.3,101.7,7.15-1.02,13.86-.85,20.13.51l5.15-2.8c161.15-23.81,189.82-249.99,63.91-336.91l-.06-2.3c-2.01-.11-2.36-.28-1-2-2.92-1.26-2.18-2.79,1-3l2.7-2.28c34.15-3.02,72.57-17.71,79.8-55.05l2.5-1.67h47l1.35,3.04c-8.19,72.53,86.48,70.47,77.3-.03l1.35-3.01h274c-1.6,2.25-3.72,3.81-6.42,4.38-37.3,9.4-71.85,20.21-106.47,37.97-35.56,18.24-71.08,41.88-99.59,68.09l-1.53-.44-.28,2.52c-9.57,3.05-19.19,5.98-28.85,8.8-17.57,12.53-36.89,32.44-41.54,54.04l-2.34.64c1.32.94.93,2.24.48,3.55-50.08,77.31-55.63,173.05-45.58,263.04,1.16,10.39,2.99,20.79,6.7,30.6l-.59,3.81.29,3.59c-19.69,43.9-15.6,94.76-10.59,141.52.86,10.42.6,20.84-.87,31.03l-8.71,53.53c-5.06,38.88-10.68,94.62,41.82,99.59,35.18,3.33,58.61-18.62,63.69-52.59l2.38-2.67c1.29.8,2.29,1.87,2.97,3.21,4.52,29.23,10.77,53.98,25.01,80.17,20.87,38.39,50.59,74.38,81.51,105.17,24.59,24.49,52.05,47.88,83.31,61.2,3.35,1.93,4.42,4.01,3.21,6.24,2.27,1.31,2.05,1.98.41,3.82-25.94,17.1-47.81,38.99-60.83,67.89l-1.59,1.29h-73l-1.96-1.91c-5.72-48.27-70.08-50.26-76.64.07l-2.4,1.84h-37l-.92-4.72c6.1-29.07,2.89-61.16-7-89.11-23.1-65.31-96.09-92.61-160.3-95.01-2.53-1.52-5.79-2.24-9.78-2.16l-4.27,2.05c-97.98-3.28-164.59,91.47-147.63,184.15l-1.1,4.81h-262l-2.21-2.31c-3.77-31.29-32.49-61.8-63.61-67.03-43.64-7.34-92.95,17.55-93.19,66.07l-1.99,3.27H0v-233l2.01-1.5c46.74,2.33,93.77,3.41,141.11,3.25l5.88,1.25c7.27-1.1,14.7-.62,22,.08l55.5,36.76c45.53,31.22,96.12,52.71,149.06,27.98,46.72-21.82,55.99-91.28,44.88-136.72-.67-5.81-.79-10.21,1.34-15.61,1.5-3.79,7.07-12.17,11.23-11.5l1.21-1.74c5.73,1.07,11.54,1.79,17.37,2.38,11.96,1.21,27.8,2.69,39.31-1.3,9.16-3.18,13.14-10.78,15.86-19.72,4.57-15,7.33-60.35,2.18-74.68-5.89-16.4-22.23-22.08-37.94-25.56l-.99-2.38c-1.44,1.44-2.28,1.01-2-1-3.25.03-7.02-1.38-9-4-1.95,2.2-4.85.92-4-2-3.41.44-5.12-1.51-7-4-3.87,1.25-5.76-5.24-2-7l-1.05-1.15c1.25-2.32,1.43-4.99.55-8.02,27.72-103.72,28.8-221.22-25.76-317.68-.65-2-.89-4.04-.74-6.14l-3.44-2.43c-7.72-15.3-18.71-28.45-29.73-41.45l-.83-4.11c-1.94-.41-3.35-1.52-4.67-2.91-34.31-35.9-67.43-64.99-116.03-80.41l-4.3-3.68v-2.82c30.71-19.35,51.93-57.52,65.94-90.51,7.2-16.95,6.54-28.23,4.88-46.44l2.18-2.23h86Z"/>
  <path class="cls-63" d="M1205,258l2.07-2.17c44.63,2.27,87.96,26.7,107.13,67.82l.81,6.35c.89-.22,2.07-.19,2.36.56,5.22,13.45,6.23,23.67.33,37.31-3.44,24.85,10.29,60.77,23.24,82.19,32.44,53.67,100.21,97.05,163.87,82.36l3.2,1.58c3.38-3.69,13.97-3.69,18-1,7.66-.62,14.31.8,21.12,4.39,34.53,18.08,74,29.23,112.31,37.17,41.24,8.54,122.83-1.52,145.73-41.31,13.14-22.83,16.04-47.76,5.25-71.84-16.35-34.21-29.81-71.32-12.72-107.58.24-3.29,1.35-5.57,3.32-6.83l1.84-1.67c31.17,19.1,76.44,25.6,105-1.79l3.16-.54,2.57,1.06c3,5.36,5.14,11,6.43,16.94v103l-1.83,2.64c-23.82,8.04-33.29,30.44-25.71,53.87,4.32,13.36,11,21.83,25.08,14.39l2.45,1.1v219l-3.89,3.35c-38.17,15.99-74.87,35.09-110.12,57.31l-2.99.34-5.14,5.75c-25.1,16.96-50.05,34.61-72.84,54.65-57.44,50.49-82.62,118.74-106,189.52l-2.02,2.08c2.17,3.35-.5,10.32-4,12h-100l-2.13-1.15c-23.92-46.2-59.74-91.12-109.66-108.48l-1.22-2.37-6.12-1.51c-44.76-29.1-85.86-65.21-102.04-117.5-15.59-50.38-6.69-98.96,10.96-146.51,22.68-64.63-43.99-102.9-97-116.19l-1.8-2.29-4.92-2.23c-8.63-21.4-17.52-42.67-26.67-63.82-9.5-13.61-19.6-26.8-30.3-39.57-10.92-15.81-15.47-26.9-14.97-46.4.07-2.87,1.09-10.32,3.86-10.98-.85-4.37,2.23-4.94,9.25-1.7,31.54,20.74,68.51-4.08,66.79-39.77-8.64-21.85-16.05-42.52-12.95-67.2,2.7-13.43,3.69-26.75,2.97-39.96-1.71-4.11-2.39-7.9-2.05-11.37-.23-3.4,8.49-6.24,10-3Z"/>
  <path class="cls-68" d="M1603,0l4.83,1.44c12.48,7.29,25.53,13.44,39.14,18.46l2.03,3.1c1.98.79,4.03,1.01,6.15.69,35.97,19.23,69.02,42.95,99.14,71.15,14.5,7.8,19.92,18,27.08,31.64,2.56,1.57,3.77,3.41,3.63,5.51,1.8,2.89-.3,3.66-3.07,3.37-12.9,12.48-16.39,30.99-18.84,48.16-3.99,27.95-7.07,57.36,1.65,84.7l-.74,3.77c0,.73-.02,1.45-.18,2.15-2.01,8.86-40.77,33.04-51.81,36.82-5.84,2-17.13,5.46-21.01.03-.46.39-.93.75-1.46,1.01-4.26,2.06-20.9-10.83-24.45-14.71-50.19-52.52-118.3-96.72-194.39-85.71-48.25,6.98-107.54,31.47-134.27,73.95l-3.43,1.47-.31,4.1c-7.09,10.92-12.29,23.01-15.01,35.76l-2.68,3.14c-4.42-10.94-20.87-35.18-30.07-42.43-18.33-14.46-56.44-32.08-79.93-29.57-6.07-3.09-3.43-14.07-1.15-19.62,12.17-19.45,14.71-31.11,5.04-53.45-28.19-65.15-96.85-87.87-163.48-71.14-2.82-1.4-2.87-1.8-.41-3.8,2.31-1.7,5.66-6.62,8.53-8.97,41.48-34.02,92.28-64.98,143.21-82.79,20.34-7.11,42.06-10.62,62.26-18.24h344Z"/>
  <path class="cls-36" d="M355,579l2.16-1.5c3.57,2.57,7.49,4.64,11.76,6.21,3.2-4.91,8.33-9.08,12.75-2.73,2.19-2.35,5.15-3.01,8.89-1.99l2.96-3.22c-5.76-2.05-7.34-15.04-.62-15.98.15-4.2,2.26-7.69,6.34-10.46-6.08-1.47-4.41-4.81-.24-7.6l1.4-2.85c.97-11.71,3.36-25.88,17.97-13.87,7.45,6.12,4.4,20.66-1.34,27.32.81,2.89.51,5.05-.89,6.48,4.06,3.22,5.66,6.13,4.72,11.45,4.66-1.17,7.85,1.1,9.57,6.8-.79-11.01,9.91-7.74,11.81.77,4.54,1.04,5.62,4.14,4.68,8.54l-2.92,10.59c1.64,4.17,4.84,12.6-2,13.03l-2.68,1.45-22.45-6.71c-23.86-7.99-51.2,6.9-65.59,25.39-9.31,37.02,19.4,61.98,44.5,83.4,3.46,3.54,5.14,5.84,4.87,11.02-.26,4.93-15.64,22.61-20.04,25.76l-2.59-.31c-.29.96-.61,1.9-1.06,2.77s-.89,1.69-1.55,2.27c-19.9,17.78-44.78,33.45-67.83,46.95-.75.44-1.67.62-2.62.8s-1.95.21-2.94.21c-2.94,3.66-7.88,6.62-12.12,9.13-32.09,18.98-80.24,33.57-117.24,38.05-8.07-.98-15.95-1.04-23.64-.17-48.96.71-94.63.36-143.55-1.96-1.89-.09-3.67-.48-5.45-1.04v-243l1.75-2.65c20.76-3.84,41.58-3.29,62.46,1.65,1.19-.63,2.46-.96,3.79-1,2.4-1.68,10.6,7.03,11.85,9.22,12.45,40.48,41.97,80.53,83.07,95.3,53.88,19.36,54.31-22.26,53.12-62.1l1.96-1.43,1.47-.28c1.59,3.76,2.24,8.12,1.95,13.1,32.39-5.44,64.38-13.04,95.97-22.81l14.24-14.09,3.37-.92c2.42.53,14.03-4.47,6.31-3.84l-2.31-1.16-.85-2.43c5.63-9.8,10.05-20.32,14.36-30.75l2.49-.83Z"/>
  <path class="cls-50" d="M136,363c.69-.33,1.4-.62,2.13-.77,3.99-.85,16,5.66,20.25,8.1,26.91,15.45,46.08,42.32,59.38,69.77,5.9,12.18,17.37,40.39,17.06,53.69-.1,4.1-.53,6.6-2.82,10.21l-1.17,4.92c-12.12,18.1-22.92,36.67-32.38,55.73l-2.45.35-3.05-.38c-33.63-29.61-110.45-6.17-122.57,36.45l-2.37.93c-.22.72-1.17,1.7-1.17,2.79-2.02,1.37-23.61-3.51-28.29-3.83-11.99-.81-27.26-.89-38.54,3.04v-306l3.23,1.61c13.97,34.43,48.09,43.18,81.02,50.68l45.74,9.11,6.02,3.61Z"/>
  <path class="cls-7" d="M333,0c-1.08,10.07,2,20.23.74,30.24-2.82,22.44-38.33,83.12-55.73,98.27-5.91,5.15-12.96,8.04-18.01,13.49l-4.3.66c-30.49-9-62.95-11.73-94.66-12.19-54.94-.8-113.52,4.87-156.35,42.91l-4.69,1.61V0h333Z"/>
  <path class="cls-56" d="M260,142c53.79,19.01,88.86,43.64,125,87-.37,3.64-3.04,2.65-5.62,1.1-3.93-5.21-8.63-9.05-14.09-11.5-1.02-1.04-13.13-12.89-14.21-11.93-3.71,8.87-17.63-.16-13.35-8.96-2.63-3.29-6.35-5.81-11.18-7.57l-3.46-3.81c-4.23,3.29-5.4,1.07-3.51-6.66l-4.36-1.68c-7.59-.39-11.94-4.47-14.06-11.62-.73-.68-7.03-3.22-5.82-.55,1.32,1.63,3.35,8.55,2.43,10.03-1.8,2.91-14.38,5.98-18.42,6.23-2.48,3.03-5.86,3.37-10.14,1.04-3.14,1.34-5.3.73-6.49-1.83-5.99-1.3-8.69-2.62-10.22-9.02l-3.23-4.5c-1.91,1.92-4.27,2.45-6.82,1.48-.71,3.78-1.5,4.26-5.22,4.79l-1.26,8.53c1.2,5.34,1.63,9.44-4.55,11.42-6.81,14.38-5.38,17.94,4.29,10.7,5.08-2.26,10,2.05,13.3,5.28l-.61,2.12c-11.07,2.79-21,8.04-27.99,17.24l-2.4-.36-3.32,1.35c-64.03-11.1-110.36,67.51-84.6,122.11,3.07,3.44,5.04,6.96,5.92,10.54-37.42-10.39-102.53-12.26-126.42-48.08-3.58-5.37-6.3-11.38-9.58-16.92v-123c46.47-44.4,115.24-48.63,176.54-46.04,25.82,1.09,59.3,4.51,83.46,13.04Z"/>
  <path class="cls-64" d="M964,1080h-179l-1.88-4c1.04-22.9-7.95-42.64-18.39-62.07-7.29-17.07-10.25-28.63-5.11-46.69,7.25-25.47,19.54-52.7,32.94-75.12-4.95.55-7.14-.49-6.55-3.12,69.74-.24,152.4,29.18,173.92,102.58,8.4,28.65,11.64,59.21,4.08,88.42Z"/>
  <path class="cls-9" d="M786,889c1.3,2.59,9.92-.81,8.97,2.46s-6.17,9.82-8.15,13.86c-7.18,14.65-27.5,60.91-27.87,75.13-.74,28.38,16.68,42.96,22.97,68.12,2.58,10.31,3.59,20.8,3.07,31.43h-152c-11.9-57.03,7.39-118.85,51.53-156.97,30.03-25.93,62.47-33.9,101.47-34.03Z"/>
  <path class="cls-41" d="M1896,0l1.14,2.16c-7.08,6.63-15.53,12.04-25.35,16.23-31.87,17.7-15.01,52.81,15.09,56.43,9.04-4.01,17.2-4.59,24.46-1.75,4.12-2.4,7.5-.01,8.66,3.93v6c-1.02,4.2-10.82,5.26-15.08,5.23-5.88-.03-9.37-1.26-13.6-5.17-27.81,17.17-50.29,46.81-53.81,79.82-.51,5.12-5.61,9.41-9.51,5.12-7.95-5.92-16.3-16.5-19-26-7.58-7.54-13.61-16.25-18-26l-3.22-1.21c-7.3-13.53-16.3-24.57-27.89-35.09-27.55-25-60.7-42.83-93.55-59.76-1.42-1.05-2.53-2.37-3.34-3.95-10.59-1.72-23.94-7.98-31-16h264Z"/>
  <path class="cls-10" d="M1920,755v325h-18l-1.23-3.15c1.78-8.95,2.51-17.99,2.19-27.15l2.04-2.7c-2.58-14.39-3.41-29.61-2-44v-1l-2.22-2.94c-.35-10.63-1.38-21.19-3.07-31.67l1.29-3.39c-.31-6.23-1.3-12.39-2.95-18.5,2.51-8.27-3.79-16.9-10.53-21.08-13.64.85-18.55-4.72-26.85-14.45-18.92-14.09-32.02-24.19-44.32-44.71-4.5-7.5-14.05-29.3-15.52-37.46-1.13-6.29-1.04-7.15,4.16-11.81,24.82-16.06,55.4-33.27,81.99-46.51,11.35-5.66,22.87-10.76,35.01-14.49Z"/>
  <path class="cls-49" d="M596,0c6.07,2.2,3.55,6.26-1.72,8.31-2.23,7.15-6.47,10.29-12.71,9.43-1.79,6.52-5.19,10.01-10.22,10.46,1.78,3.87,2.45,7.67,1.99,11.42,6.16,1.35,8.88,3.06,6.62,9.58,6.09,10.79-2.49,16.33-11.18,21.38-7.1,7.36-13.67,12.98-23.5,16,11.63,3.34-3.81,18.12-8.99,18.46-6.32-2.33-8.51-2.25-14.89-.32-12.96,6.39-27.36,7.51-41.4,6.29-13.56-2.5-22.25-6.84-32.94-15.56-29.03-23.69-35.91-59.92-28.06-95.44h177Z"/>
  <path class="cls-62" d="M858,0c-1.77,6.81-3.54,14.25-7.18,20.32-16.41,27.37-48.23,35.87-77.82,38.68-2.24,2.41-10.69.82-11-3l-2.66.57c-16.66-4.68-33.57-8.09-50.75-10.24l-4.59-2.33c-6.27-1.01-12.72-.97-19,0l-4.59,2.24c-50.02,3.55-98.63,24.62-133.74,60.68l-4.67,2.07c-17.81-.1-34.37,5.34-52.49,3.99-3.18-.24-6.47-1.43-9.51-1.99,4.79.76,8.96-1.41,13.51-1.99,3.13-.4,6.4.27,9.75-.25,7.84-1.22,17.25-7.12,25.3-7.75,3.69-.29,6.82,3.85,11.01,1.06,1.46-.97,2.24-3.28,3.43-4.56,1.43-1.54,5.41-3.05,4.85-5.87-1.08-5.47-8.94-.82-11.65-2.84-.68-.51-.56-2.29-1.19-3.07s-1.65-.71-2.29-1.98c-1.84-3.63-2.51-7.77,2.45-9.09,7.92-2.1,4.73,8.2,7.32,12.33,2.48-4.5,7.1-3.79,10.42-5.58,6.2-3.36,9.56-8.17,14.61-12.39,4.74-3.96,12.65-5.6,12.52-13.55-.04-2.53-1.86-4.06-2.05-6.06-.17-1.76,1.27-4.81.93-5.28-1.18-1.65-7.64-2.83-7.93-3.14-.22-.24.91-2.82.76-4.22-.26-2.35-2.84-8.78-2.76-9.26.35-1.9,4.83-1.02,6.52-2.5,1.3-1.15,3.58-7.79,4.74-8.75,2.34-1.95,6.69-.06,7.75-.69,2.06-1.23,2.76-11.31,9.99-10.59l-2-4.99h262Z"/>
  <path class="cls-58" d="M1920,83v224c-2.3,5.2-5.26,10.24-8.87,15.14-.81,3.17-2.19,5.46-4.13,6.86-1.83-2.2-3.71-4.46-4.82-7.13-16.96-49.61-40.82-93.87-67.21-138.8-1.46-2.49-2.27-5.29-2.98-8.07-3.11.79-5.95-4.65-4-7,2.08.11,5.19-.17,6.46-2.04,1.38-2.04,3.47-18.09,5.08-22.92,6.43-19.21,21.17-38.56,36.45-51.55,1.73-1.47,13.64-10.2,14.74-10.36,2.93-.43,3.55,2.48,6.03,3.61,6.98,3.19,16.39.67,23.24-1.74Z"/>
  <path class="cls-32" d="M1389,977c6.08,4.49,4.87,16.93,3.55,24.11-3.88,13.33-9.2,26.15-15.99,38.45-6.06,12.27-7.89,24.95-5.6,38.37l-1.96,2.07h-133c-4.79-1.15-7.98-12.4-5-16l-.8-9.82c-1.78-1.03-1.21-1.7.23-2.91,30.03-3.68,85.98-35.34,92.48-66.55-.06-4.53.64-8.43,2.09-11.71,1.47-3.35,13.35-4.14,15.5-1,.1-.78.33-1.93.91-2,4.8-.58,22.05-.73,26.62,0l1.47,2c.09-.49.21-.95.47-1.32.87-1.21,18.87,2.48,19.03,6.32Z"/>
  <path class="cls-55" d="M1903,1002c.03.33-.03.67,0,1-1.36,14.25-.66,29.68,2,44-.2,11.45.25,21.79-3,33h-289c1.01-4.06,2.81-8.03,4-12,16.48-3.24,34.72-.69,51.29,1.92,12.74-3.35,25.55-5.9,38.45-7.66,37.19,5.56,69.64-17.97,96.71-40.47,1.07-.99,2.31-.58,3.56.21l6.72-5.14c5.99-9.47,20.64-20.91,14.24-1.14,4.63-1.7,9.52-2.3,14.66-1.78,2.85-3.12,5.82-4.02,9.53-1.51,2.6-1.96,4.89-1.84,6.21,1.34,7.65.27,14.5-.36,21.01-4.5,3.97-7.65,13.14-17.82,20.21-7.58,1.17-.28,2.31-.18,3.43.31Z"/>
  <path class="cls-26" d="M371,1080h-161c-1.13-50.68,44.32-76.11,90.48-71.98,34.57,3.09,68.29,37.48,70.52,71.98Z"/>
  <path class="cls-65" d="M1325,973c2.72,15.93-6.05,27.33-16.03,38.47-13.47,15.04-45.34,33.61-64.76,39.24-2.52.73-12.69,1.86-13.16,2.34-.55.57.28,9.03-.05,10.95-2.24-.99-3.3-3.19-3.17-6.62-10.55,1.6-22.65,3.97-33.53,6.91-13.93,3.76-25.33,8.15-37.3,15.7h-2c7.61-22.81,25.21-42.81,43.53-57.97,5.3-4.39,12.63-8.2,17.45-12.59,1.12-1.02.91-2.36,1.02-2.43,3.51-1.11,7.25-2.42,11.24-3.9,28.86-15.46,60.48-27.72,93.61-31.83l3.15,1.74Z"/>
  <path class="cls-40" d="M1400,968c6.49,1.17,27.12,12.02,33.67,15.83,17.11,9.95,35.64,31,48.84,46.16,12.88,14.78,21.31,32.88,30.49,50.01h-96l-1.61-2.41c4.13-13.17,9.62-25.85,16.48-38.03,19.24-32.57-10.64-49-37.17-59.21l-.69-2.35c-1.38-.97-1.56-2.52-.53-4.63-2.37-7.27.56-7.44,6.53-5.37Z"/>
  <path class="cls-5" d="M1394,978c14.61,4.83,44.11,19.5,45.79,36.8,2.02,20.75-19.87,44.76-22.79,65.2h-48c.05-5.68-1.33-10.73-1.03-16.54,1.54-30.65,32.45-53.93,21.03-86.46,1.55-2.58,5.16-2.19,5,1Z"/>
  <path class="cls-43" d="M1896,0h24v77c-2.18.28-3.35-2.57-4.7-2.91-2.03-.52-3.15,1.69-3.82,1.7-.42,0-1.98-2.41-4.92-2.83-10.02-1.45-15.71,6.53-27.1,3.11-8.29-2.49-24.44-16.1-26.23-24.79-3.86-18.76,7.21-28.45,21.47-37.07,6.97-4.21,17.95-6.6,21.3-14.2Z"/>
  <path class="cls-14" d="M985,0c4.61,18.26,1.11,34.74-12.99,47.51-19.57,17.73-45.67,15.55-59.83-7.19-8.09-12.99-11.03-25.19-7.18-40.32h80Z"/>
  <path class="cls-12" d="M1082,1080h-81c4.06-21.93,14.97-40.25,39.46-41.05,21.39-.7,42.67,19.14,41.54,41.05Z"/>
  <path class="cls-61" d="M1920,464v72c-13.33,6.07-19.8,5.45-26.53-7.97-13.3-26.53-2.6-56,26.53-64.03Z"/>
  <path class="cls-20" d="M1231,1064c1.05,5.68,1.95,10.91,5,16h-79c1.15-1.96,2.78-3.58,4.67-4.83,19.3-12.85,45.92-14.78,67.85-21.15.19,3.54.89,6.77,1.48,9.98Z"/>
  <path class="cls-23" d="M1632,0c9.97,5.97,20.65,10.74,31,16,2.46,3.13-1.05,3.93-4.07,3.2-2.92,4.5-4.28,6.38-9.93,3.8-15.53-7.11-32.3-11.87-46-23h29Z"/>
  <path class="cls-30" d="M1920,361c-3-5.37-6.87-12.33-9-18-3.85-.84-7.13-11.55-4-14-.2-6.43,8.34-17.58,13-22v54Z"/>
  <path class="cls-19" d="M1204,584c29.24,3.84,82.73,32.93,96.86,59.64,20.09,37.98-2.33,69.59-10.37,106.35-11.31,51.75-2.94,108.65,30.54,150.48,21.82,27.27,49.5,49.1,78.97,67.53-.3-.06-4.45.89-6,0,1.83,4.45,2.07,5.51,0,9.99-2.07-.69-3.6-.6-5-1-4.49-1.3-15.58-5-19.5-5h-29c-3.8,0-11.11.69-15.5,1-21.29,1.5-51.11,11.08-70.98,19.52-7.84,3.33-27.6,15.19-34.48,15.47-1.07.04-2.43-1.06-2.54-.99-4.59-7.37-14.07-8.66-21.04-12.46-5.1-2.78-10.48-6.41-15.29-9.71-54.53-37.54-133.07-126.06-150.61-190.39-3.89-14.26-4.84-29.27-9.06-43.44l-1.6-3.72c-.16-46.58,24.62-84.44,49.69-121.8l3.91-2.47c6.02-9.12,16.38-15.14,25.78-20.57,30.53-17.67,65.15-24.88,100.23-21.03l4.99,2.6Z"/>
  <path class="cls-13" d="M587,468c1.54-.73,2.82.2,3.83,2.77,4.26-5.14,9.14-3.12,4.97,3.1-10.29,13.11-14.93,20.17-3.22,34.14,15.01,17.92,34.78,33.12,53.22,47.18,14.92,7.86,26.75,16.56,36.63,29.77l1.78.27c33.04-23.33,68.3-46.47,111.07-38.18,32.94,6.38,57.61,22.45,78.71,47.95,7.78,28.4,8.09,43.97-2.25,72.25-21.87,59.75-59.78,100.13-121.75,118.25-101.83,29.78-180.55-20.58-220.47-113.53-31.36-73.02-9.91-160.13,57.47-203.97Z"/>
  <path class="cls-35" d="M1047,451l2.96.42c6.88,8.72,11.92,18.7,16.89,28.63,18.03,36.06,25.26,57.47,22.02,98.57-1.34,17.02-3.75,32.28-15.87,44.37-17.92,28.91-40.19,57.91-47.69,91.81-2.73,12.35-2.83,23.8-4.31,36.19-4.51,37.56-30.13,62.28-69.38,56.88-73.04-10.04-32.94-120.28-30.58-167.34.98-19.55-3.29-39.48-4.08-59-1.24-30.62.3-77.77,16.04-104.54-.18-1.59-.31-2.9.34-4.36,2.15-4.82,9.4-12.59,13.33-16.55,21.71-21.9,56.41-36.73,85.4-20.04,5.77,3.32,13.74,8.28,14.93,14.96Z"/>
  <path class="cls-47" d="M545,1031c-2.1,1.54-4.67,1.02-7.71-1.56-14.9-13.24-31.22-23.87-48.96-31.89-1.36-1.03-1.65-2.15-2.03-3.72-8.57-1.2-16.3-3.9-23.21-8.12l-.09-2.7c-12.32-11.21-27.97-40.35-30.73-56.77-6.16-36.7,8.03-53.87,19.47-84.98,11.16-30.36,14.95-65.1,50.01-78.99,31.11-12.33,93.38,19.36,114.75,42.73,36.25,39.63,35.92,112.55,21.2,161.23-5.82,19.25-24.6,46.05-40.19,58.81-12.79,10.46-37.37,11.06-52.52,5.98Z"/>
  <path class="cls-52" d="M773,64c.77.09,7.25,5.01,8.47,6.03,65.88,55,88.83,138.33,60.99,219.93-22.91,67.16-67.59,106.23-138.46,116.04l-1.63-2.05c-8.93.08-17.04-1.82-24.33-5.69-17.47-2.62-12.72-18.97,2.42-22.16,1.06-8.09-.86-10.67-5.74-7.72-2.52.21-4.93-.8-7.22-3.05-4,1.03-7.12,1.04-9.07-3.18-2.19,6.47-7.43,4.44-10.26-.42-4.94-2.35-10.97-5.18-16.5-4.52-4.93,2.96-10.04,1.91-15.31-3.15l-9.14-3.16c-3.17-2.73-2.07-5.6,3.29-8.62l-2.23-3.57c.8-4.57.75-6.04-2.31-9.59-6.54-4.69-6.36-8.18.55-10.48,16.88-5.87,28.94-11.3,42.01-23.1s15.67-15.52,17.17-33.78c.45-5.41.63-13.36.64-18.85,0-.65-.14-1.29-.34-1.92l-1.85-1.95c-.75-10.28,1.61-29.12,6.68-38.05,3.47-6.11,19.61-22.67,22.22-8.9,9.97,42.54,37.57,41.96,50.95-1.39,6.56-21.26,14.37-82.44-.4-100.69-2.34-1.43-3.54-3.1-3.6-5.02-1.78-.77-2.52-1.72-2.24-2.84.46-2.03,29.95-24.89,35.24-18.16Z"/>
  <path class="cls-53" d="M1205,258c-3.16.34-7,1.83-10,3l-1.31,2.73c-16.89,9.43-34.72,16.85-53.48,22.26-13.09,5.04-26.33,12.1-33.33,24.77l-2.88,1.24-3.85.84c-22.61-5.6-47.89-13.55-65.55-28.84-31.47-27.24-56-66.82-62.6-108,1.19-2.94,1.36-6.85,2.54-9.96,4.76-12.44,28.48-40.86,40.47-46.53,8.04-3.8,24.88-5.76,29.99-9.51-.38,3.26.92,1.75,2.78,1.29,37.59-9.39,84.03-5,116.75,16.68,23.46,15.55,50.25,50.76,52.45,79.54,1.64,21.38-19.45,29.85-11.98,50.49Z"/>
  <path class="cls-27" d="M972,176c2.82-.59,1.89,1.39,2.3,3.15,9.08,39.56,23.6,64.51,51.67,93.38,5.11,5.25,11.16,11.72,17.12,15.88,17.93,12.55,40.53,16.69,60.91,23.59l.88,2.98c-3.28,9.96-5.16,20.23-5.65,30.8l-2.23,2.22c-.53,6.68-.96,13.38-1.28,20.1-24.76,11.92-47.31,29.83-46.84,59.8l.51,20.07c.13,1.54-.96,2.42-2.4,3.03-35.36-40.56-90.86-13.36-114,26-5.82-13.27-7.52-28.13-8.99-42.51-8.87-86.38-2.54-164.61,37.82-242.17,2.71-5.2,8.16-11.35,10.17-16.33Z"/>
  <path class="cls-17" d="M685,44c6.28-.97,12.72-1.01,19,0,19.89,1.09,39.13,6.09,58,12,.97,2.87,4.13,4.4,9.49,4.59l.51,1.41c0,.19,1.11,1.28,1,2-.48-.05-7.19,1.17-8.06,1.44-4.95,1.55-18.75,12.49-23.68,16.32-1.42,1.1-3.05,1.1-1.26,3.23l-2.15,1.25-11.95-5.02-23.01.95c1.8,2.77,2.57,5.41,2.33,7.92-22.75,8.62-40.65,23.84-56.96,41.51l-2.53-.02c-9.77-10.11-25.73-14.22-39.38-15.52-4.96,3.6-10.77,6.05-17.43,7.36-9.53,3.9-24.16,21.54-27.04,31.41-4.85,16.66-6.69,35.4-7.77,52.64,2.46,15.95,3.12,28.9-2.83,43.76,3.48,7.38,7.85,14.32,13.1,20.85,3.43,5.54,5.46,11.89,6.11,19.06,6.53,4.9,13.22,8.88,20.07,11.92,8.75-2.68,12.7-.89,11.87,5.37,11.92,2.09,23.14-7.99,31.21-15.61-2.91-3.56-1.33-5.7,2.78-6.48,2.63-4.91,6.88-8.97,12.77-12.16l1.46-2.72c.55-10.94,4.56-8.35,10.63-2.62.22-8.96,1.04-17.79,2.48-26.51l2.25-1.33c1.66,1.04,1,3.8,1.02,5.49.15,12.29,1.46,26.42-4.59,37.44-3.09,5.61-21.34,21.14-27.28,24.72-10.14,6.12-23.2,8.25-33.13,14.85,3.54,1.58,8.06,6.47,8.79,10.23.3,1.55-.93,3-.63,4.54.27,1.36,2.66,3.09,2.58,4.24-.13,2.02-6.23,3.81-5.76,5.98,3.08,1.98,6.72,2.16,10.23,3.78,3.23,1.49,5.67,5.43,10.18,4.74,1.95-.3,2.81-2.13,6.01-2.07,3.69.07,12.76,3.12,15.93,5.2,1.47.96,1.84,3.12,3.28,3.72,5.07,2.11,2.17-4.76,6.85-3.89.79.15,1.01,3.33,3.22,3.92,1.8.47,3.52-.93,5.33-.46s3.61,3.17,5.47,3.22c.84.02,1.89-1.15,2.92-1.17,8.28-.13,5.1,2.51,5.57,9.53,2.91-2.05,5.91.11,4,2-.11.11-2.14-.13-3.16.3-6.48,2.71-17.03,5.3-13.11,14.44,2,4.65,6.01,3.42,9.27,4.77,2.49,1.03,4.96,2.9,7.5,3.59,4.5,1.22,12.54.91,16.86,2.05,2.35.62.98,2.5.64,3.86-43.48,6.02-98.01-5.87-130.54-36.96-40.22-38.44-76.16-96.99-72.45-154.53,1.93-29.87,20.75-83.2,40.99-105.51,35.45-39.07,90.32-62.89,143-65Z"/>
  <path class="cls-1" d="M341,411c.57-.89.4-1.71-.5-2.55,3.48-5.56,5.86-11.69,6.77-18.39,3.58-6.24,12.42-11.35,17.74-4.36,5.34-10.01,12.08-12.91,14.59.52,7.98-2.74-1.71-11.97-5.56-15.25-2.64-3.66-2.99-8.4-1.06-14.22l-5.61-18.99c-1.51-10.48,6.22-9.91,13.88-8.68l6.14-2.17c7.83,3.98,13.99.11,18.48-11.61l-9.39-7.46c-2.03-6.01-5.42-6.06-7.08.37-3.1,2.15-3.79,4.18-2.06,6.08,3.35,10.43-21.17,10.08-13.57.49-4.02-5.09-4.86-10.65-3.43-16.91,2.34-5.63,2.78-10.85,1.31-15.66-5.52-.14-6.42-11.89-3.89-13.92,3.09-2.48,12.62,4.43,10.51,9.01,2-4.11,3.49-4.63,7.66-3.69,2.42.54,11.06,3.69,11.66,5.68,5.45-.13,10.92-.23,16.4-.31.32-1.6,1.98-2.27,5-2,13.14,27.39,26.02,52.65,34.29,82.21,18.06,64.59,14.82,143.47,2.4,208.97-2.37,12.5-8.59,30.27-9.69,41.81-.44,4.07-4.44,3.86-4,0,8-5.05.34-7,0-12.58-.2-3.22,4.43-11.6,2.89-15.8-.62-1.7-2.82-1.19-3.96-2.32-1.77-1.76-1.44-5.96-4.91-6.9-7.17-1.93-.71,6.61-5.53,6.63-3.82.01-3.08-5.63-4.43-6.63s-6.23.84-6.98-.49c-.62-1.1.35-5.03-.29-7.21-.73-2.52-5.4-3.77-4.84-7.19.08-.5,1.99-.47,1.96-.93-.09-1.34-1.46-2.37-.76-4.85.37-1.31,2.19-2.21,2.69-3.37,2.8-6.43,2.65-10.95,2.91-17.73-2.17-4.13-12.13-11.09-15.69-6.04-2.95,4.19.5,17.94-8.07,20.94-.64,3.37,5.92-.34,4.98,2.97-.87,3.06-5.54,5.49-6.45,7.55-.72,1.61-.25,3.98-.99,5.03-.78,1.12-3.28.42-3.61,1.54-.36,1.26-.08,8.12.55,9.41l6.03,3.99c-2.37.11-5.8,4.98-6.2,5.06-4.24.88-5.14-3.87-9.82,3.93-5.06-12.36-10.44.62-12.06.99-1.15.27-2.94-2.01-4.39-2.55-1.56-.58-3.6-.03-4.8-.7-.6-.33-2.32-3.56-5.24-3.74l-.27-2.92c6.07-17.5,11.38-35.25,15.94-53.25-11.73-5.27-18.78-15.51-21.82-27.93-3.77-20.61-8.69-40.86-14.75-60.72-.49-7.21.54-19.43,6.91-23.18Z"/>
  <path class="cls-48" d="M874,595l-2.5,1.01c-13.5-16.11-26.28-28.71-45.82-37.19-56.21-24.38-87.83-7.19-134.6,23.77-3.31,2.19-3.81,5.89-9.37,4.22-2.19-.66-9.33-10.98-11.72-13.3-7.6-7.35-16.85-10.76-25.33-16.67-13.68-9.55-54.5-42.94-59.85-57.14-2.69-7.14-.85-11.22,2.67-17.71,2.59-4.77,6.8-7.93,8.51-12.98-.65-.72-3.64,4.8-6.46,4l-2.53-5c36.66-23.85,80.41-35.16,124.19-28.69,89.21,13.2,139.84,71.8,162.81,155.69Z"/>
  <path class="cls-45" d="M433,751c-6.6,7.25-11.61,11.82-10.98,22.48.64,11.03,4.37,23.63,4.97,35.03,1.46,27.7-8.31,68.99-26.48,90.5-22.2,26.28-73.12,33.96-104.72,24.7-45.48-13.32-87.89-48.59-127.83-73.17-6.21-.95-12.7-.63-18.96-.54,5.21-2.22,11.78-.45,17.42-1.08,46.53-5.22,95.63-21.92,135.58-45.92,4.99,4.24-2.5,7.33-6.4,8.61l-5.32,5.29c5.06-2.58,11.29-4.97,16.18-.67,1.73-1.99,4.2-2.42,7.39-1.29,9.42-8.15,17.52-9,29.24-5.84,1.31-2.31,3.5-2.43,5.92-2.01,3.2-4.68,9-6.12,14.32-6.99,9.48,2.84,12.19-.83,16.88-8.56l3.79-1.85c1.08-8.98,7.84-9.23,9.84-.61,3.74.59,6.06.88,9.57-.55,6.72,7.52,9.56,8.16,8.53,1.92l.09-7.01c-3.28-13.14-3.32-29.51,11.84-35.22,3.68-1.39,11.4-2.71,9.15,2.77Z"/>
  <path class="cls-51" d="M433,751c-.42-.14-.56-2.41-4.4-2-8.74.93-17.62,11.7-16.64,20.53.68,6.13,2.25,9.52,2.09,17.02-.04,1.97-.12,10.09-1.61,10.42-6.86,1.53-8.55-12.25-11.96-3.96-1.75-2.23-7.94-1.76-8.38-2.12-.32-.26-.33-3.57-1.59-4.9-4.24-4.5-3.48,3.2-5.03,4.99-.94,1.08-2.86.99-3.95,2.04-2.43,2.34-3.4,7.65-8.56,9.43-4.79,1.65-7.81-.92-11.16-.24-.68.14-7.67,2.58-8.21,2.88-1.84,1.04-2.4,3.74-3.29,3.93-1.4.3-3.16-.36-4.63-.02-.77.18-.63,1.89-1.34,2.03-2.97.56-11.88-2.45-15.57-1.86-6.19.99-12.29,7.12-14.48,7.7-1.84.49-3.63-.96-4.7-.72-1.35.29-2.27,3.85-3.08,3.83-.68-.02-1.06-2.23-1.77-2.7-7.86-5.28-15.82,5.65-23.73,3.71,1.46-3.94,5.86-4.08,8.51-5.98,1.8-1.29,3.24-3.91,4.96-5.04,2.85-1.88,7.97-1.26,7.53-6.97,25.49-15.31,54.13-32.76,76-53,3.51,1.45,6.73-.22,9.65-5.01,9.4-6.52,15.46-10.91,20.8-21.14,3.88-10.82,8.97-20.76,15.25-29.82,4.86-2.65,6.4-3.57,9.56-8.4,7.76-3.29,13.67-9.19,17.73-17.73,4.56-4.03,10.29-6.88,17.2-8.55-2.8-2.4-2.85-5.54-.15-9.43-3.43-4.85-2.81-10.45,1.52-14.62-2.53-4.33-2.39-6.76.43-7.3,4.25,1.58,10.08,2.34,14.54,3.96,31.39,11.42,29.97,32.5,28.47,61.55-.89,17.29-.67,46.29-17.06,56.94-5.04,3.27-22.06,4.69-28.49,4.59-4.88-.08-30.72-2.8-34.46-4.04Z"/>
  <path class="cls-24" d="M442,610c.96.2,2.01,1.91,4,0-.5,5.24.84,4.46,2,7,1.76,2.54,4.1,3.87,7,4,1.44.81,2.59,1.3,4,2,2.17,2.66,5.66,3.95,9,4,.69.26,1.31.74,2,1-1.22,2.43,1.8,6.52,1.72,7.51-.1,1.39-4.93,3.57-3.7,9.93.35,1.78,2.22,2.97,2.01,4.98-.16,1.56-2.05,2.83-2.15,5.08-.1,2.4,3.64,1.73,3.11,3.98-3.77,4.43-11.48,3.98-15.52,6.49-3.13,1.94-9,13.6-12.96,17.04-2.35,2.04-6.21,2.68-8.48,4.52s-2.41,4.49-3.29,5.21c-.82.67-2.92.51-4.1,1.38-9.29,6.83-13.42,30.88-23.1,40.92-3.81,3.95-9.75,7.54-14.02,10.98-4.22,3.41-7.23,10.84-11.52,3.98,5.08-4.7,22.15-21.7,20.85-28.26s-16.53-16.87-21.38-21.71c-20.51-20.51-31.2-33.27-29.53-64.55.38-7.07,4.48-11.14,9.57-15.45,8.76-7.41,23.99-16.48,35.25-18.74,18.15-3.65,32.5,5.23,49.23,8.72Z"/>
  <path class="cls-57" d="M249,210c-4.64,1.02-6.04-4.26-10.42-3.98-3.61.22-9.22,5.52-11.04,4.98-1.54-.46-.87-4.15-3.52-2.99.26,2.86-3.73,7.39-4.95,3.42-1.63-5.3,3.56-3.7,4.73-4.64,1.9-1.52,4.48-12,6.14-14.09,1.27-1.6,3.54-.82,4.43-2.95,1.15-2.74-.56-4.71-.4-7.2.23-3.62,1.87-7.54,1.05-11.55l4.99,1v-5c1.75-.48,4.01,1.03,5.4.78,4.23-.79,2.24-6.59,8.82,3.52,1.1,1.69,1.44,4.71,2.29,5.71,1.85,2.16,9.77.86,8.51,6.01,3.93-4.42,8.31.44,10.29-.1,1.12-.3,1.91-2.16,3.43-2.68s3.61-.14,5.33-.66c3.91-1.19,7.6-3.12,11.86-3.65.63-.9-1.57-8.65-1.94-8.92-.48-.35-2.53.94-3.57.92-4.62-.07-8.47-4.1-12.52-6.3-2.09-1.14-7.39-2.01-8.42-3.58-2.05-3.13,7.05-6.11,8.25-2.39.28.87-1.1,2.41.79,3.36,2.15.47,1.97-2.9,3.13-3.08,1.46-.22,9.98,2.44,7.84,5.09-15.45-5.55-4.77,4.81,4.51,3.98l-1-2.98c.8-.62,8.66,2.14,9.52,2.97,1.91,1.85.99,7.5,5.96,7.07.2-.02,1.51-3.86,3.51-2.04,2.44,2.22-5.47,2.44-3.99,4.99,1.94-.68,10.59,1.68,11.98,2.51,4.03,2.42.16,6.38.03,9.48l3.98-4.99c1.37,8.71,8.92,7.67,13.53,11.97,3.94,3.67,1.34,5.1,1.53,8.47.27,4.92,5.03,4.49,8.43,6.57,1.49-.32,1.41-3.83,1.57-3.98,3.46-3.16,15.04,10.03,17.44,11.98,1.58,1.28,4.03,1.46,6.02,2.98,3.81,2.9,7.79,11.62,12.49,9.01,13.54,16.24,24.72,28.64,34,48,.74,3.34-2.42,1.61-5,2l-8.18-.06c-37.78-8.98-69.62-28.75-100.71-51.77-16.46-11.32-35.46-14.77-54.54-15.27l-1.58-1.91Z"/>
  <path class="cls-25" d="M545,1031c6.1,36.93-32.6,41.82-58.3,26.8-25.09-14.66-33.67-48.39-23.7-74.8,9.38,8.53,18.6,5.83,25.08,9.49.87.49,0,2.26.86,3,3.4,2.94,16.87,7.82,22.58,11.48,10.18,6.53,22.67,20.4,33.47,24.03Z"/>
  <path class="cls-18" d="M773,59c-.53.89-1.02,1.95-1,3-2.29-.4-16.14-.69-10-6,3.19,1,7.93,3.29,11,3Z"/>
  <path class="cls-51" d="M455,621c-6.64,2.48-5.33-.33-7-4,2.77.38,4.82,2.77,7,4Z"/>
  <path class="cls-51" d="M468,627c-2.26,1.6-9.03-.8-9-4,2.49,1.24,6.45,3.03,9,4Z"/>
  <path class="cls-3" d="M1577,307c3.99.72,8.06.84,12.22.36,4.03,7.17,13.34,10.88,20.44,5.19,16.21,3,4.95,17.23-4.33,22.45-8.8,4.03-15.79,9.48-20.95,16.37-5.77-3.57-9.02-2.75-9.75,2.44l-2.6,13.37c-2,2.72-5.1,1.99-7.88,1-3.1,2.49-3.95,5.37-2.57,8.63-3.39,6.75-4.74,10.89-3.58,18.28-2.52,5.74-3.04,11.23-1.58,16.46,5.27,6.08,16.7,20.22,5.72,26.04-10.57.42-10.98,6.3-7.17,14.85-.71,5.82-.82,11.64-.34,17.48-6.8,15.08-19.62,43.22-34.45,50.47-9.04,1.22-12.58,5.11-10.64,11.68l-1.55,1.92c-25.35,3.46-38.1,6.34-63.96-1.54-69.12-21.06-123.44-82.69-129.02-155.97-.88-11.51,5.24-17.61,5.05-27-.09-4.34-3.37-15.29-5.07-19.48,3.07-16.28,8.79-29.38,18-43l2.26-1.72c7.57,4.18,15.12,7.23,22.68,9.17,4.03-5.73,7.37-11.97,10.01-18.73,2.56-5.57,5.85-8.61,12.17-9.1l7.69-5.53c-3.41-12.57,5.89-10.81,15.42-8.71,23.22,6.43,47.06,10.49,71.51,12.17,24.56,1.7,43.08,15.09,62.03,28.89,11.1,7.4,23.81,11.71,37.27,11.6l2.96,1.96Z"/>
  <path class="cls-16" d="M1800,344c3.04-.21,3.55,1.28,1,3,.16,6.78-7.93,23.4-8.9,32.6-.58,5.5-.49,14.23.02,19.77,4.83,53.17,46.92,73.99,15.42,133.67-21.7,41.11-107.66,52.85-148.55,43.46-26.14-6-62.48-15.18-86.97-25.03-15.15-6.09-29.88-16.64-46.02-18.48l3.52-2.51c94.26-15.17,164.78-107.87,137.69-201.56l.78-2.94-1.2-2.97c7.28-2.59,14.58-5.24,21.9-7.95.11-2.23.88-3.59,2.3-4.08,12.33,2.88,24.06-2.91,34.67-8.83,13.65-7.62,27.81-18.72,38.33-30.17l2.9,1.7c10.13,17.1,19.31,33.52,25.2,52.65l8.92,15.11-1.02,2.54Z"/>
  <path class="cls-21" d="M1803,816c-.83,2.15-2.71,4.28-2.98,6.6-.67,5.65,12.72,35.05,16.12,41.76,11.73,23.14,25.83,28.34,43.87,44.13,4.16,3.64,9.98,12.3,14.77,13.31,3.39.72,7.72-.78,11.97.95,4.71,1.92,11.44,11.95,12.05,16.97.23,1.91-1.01,3.67-.76,5.64.75,5.88,4.03,12.32.96,18.63l-2.32-.94c-10.84-30.25-22.68-43.98-40.03-7.67l-12.08,22.53c-9.96,16.73-22.52,31.92-37.57,44.08-7.07,3.78-14.62,11.84-21.69,16.81-17.41,12.26-40.18,24.93-61.77,26.23-6.55.39-13.84-1.03-19.77-.77-11.62.5-26.21,7.67-37.28,7.72-4.93.02-11.18-2.56-16.01-2.98-8.73-.76-19.03.1-28.01,0-1.69-.02-4.45.64-5.49-1.02,18.5-61.48,47.84-138.61,95.47-183.03,25.57-23.84,61.11-49.94,90.53-68.97Z"/>
  <path class="cls-67" d="M1668,326c12.99,24.51,5.54,76.84-4.25,102.25-20.88,54.19-80.39,97.59-137.75,104.75-5.79.72-11.54.12-18,1-4.29-14.6,6.27-12.49,13.93-16.57,6.12-3.26,19.62-24.91,23.24-31.76,1.52-2.88,7.49-14.96,7.79-17.26.45-3.4-.98-5.85-1.05-8.91-.05-2.36,1.31-4.53,1.08-6.91-.33-3.4-3.4-5.38-2.08-10.1,2.91-10.42,11.84-2.74,13.66-10.45,1.44-6.11-1.36-5.89-3.43-9.7-.99-1.83-1.25-4.24-2.27-5.73-1.43-2.09-3.71-1.82-4.66-5.34-2.44-9.05.71-9.52,1.71-15.83.54-3.39-.75-6.93-.37-9.55.41-2.83,4.45-7.5,4.07-10.43s-5.45-1.13-4.63-4.46c5.27,2.19,6.45-4.4,8.6-4.8,1.58-.29,4.35,1.83,6.47.37s.24-28.5,13.91-16.58c.43-1.84,2.07-4.93,3.49-6.03,5.62-4.36,13.77-8.29,19.46-12.54,3.94-2.95,10.24-8.4,8.62-13.48-2.7-8.5-8.96-.08-12.88-.21-.89-.03-10.35-3.28-11.09-3.83-1.85-1.37-1.45-4.18-3.21-4.79-3.14-1.1-8.76,1.58-11.38-2.12l1.01-2.08c5.57-.76,11.21-1.54,16.45-3.67-.71-10.35.84-10.62,11.26-9.2,11.86-8.04,11.34,12.6,6.58,18.83,14.13-2.43,27.94-2.13,41.41.91,6.81,1.38,14.75,7.52,14.29,14.21Z"/>
  <path class="cls-60" d="M1131,421c-.16,3.62-1.79,8.76-1.99,12.51-1.99,37.53,30.85,57.35,46.37,85.61,10.46,19.05,15.61,44.05,25.4,61.6.81,1.45,2.01,2.25,3.22,3.28-49.57-6.51-93.19,7.37-131,39,.58-4.96,4.8-7.94,7.03-12.47,9.54-19.46,9.94-72.7,1.46-92.51-8.04-18.77-21.67-52.31-34.49-67.01,1.5-8.43-.65-17.51.01-26.49,2.33-31.72,22.85-45.21,48.82-58.67.7-5-.33-10.47.12-15.42.12-1.3,1.02-2.22,1.04-2.42l1.81,3.05c-2.19,25.13,6.04,51.85,30,63.36,2.93,2.12,5.1,3.73,2.19,6.59Z"/>
  <path class="cls-46" d="M1195,261c9.5,16.68,2.09,34.94,1.01,52.51-.68,11.08-.08,25.73,2.45,36.52,4.42,18.85,16.16,25.79,8.31,47.24-6.73,18.4-24.76,33.9-45.17,31.62-10.34-1.16-18.62-7.35-27.59-9.51-2.34-.56-1.83-.17-3.02,1.62.21-4.78-6.95-6.26-10.5-9-21.1-16.3-25.4-38.39-23.5-64,1.18-11.53,2.02-25.44,7-36,12.26-25.99,47.81-30.45,70.96-40.54,6.68-2.91,13.25-7.82,20.04-10.46Z"/>
  <path class="cls-4" d="M1907,329c.1,3.22,2.75,10.68,4,14-5.55,6.49-11.91,11.42-20.01,14.49-25.51,9.65-51.2,8.26-75.66-3.31-4.99-2.36-9.02-6.41-14.33-7.17-.03-1.17-.57-2-1-3-.95-1.56.79-3.28,1.51-2,5.69-48.68,12.82-98.15,22.28-147.12-.72-1.86-.32-3.15,1.21-3.88l-1.04-2.04c2.96-3.77,5.31-8.16,6.03-12.92l2.01-1.04c32.23,47.42,55.01,100.39,75,154Z"/>
  <path class="cls-42" d="M1564.74,833.24c14.54-2.45,49.62,6.95,61.17,16.35,21.68,17.63,7.45,53.58-13.61,65.21-39.17,21.64-73.66-11.05-71.35-51.35.77-13.5,9.57-27.82,23.78-30.22Z"/>
  <path class="cls-15" d="M1539.75,638.26c15.91-2.02,22.16,11.15,24.78,24.71,4.98,25.76-10.11,53.67-39.03,51.02-10.02-.92-31.81-7.93-39-15-16.61-16.35-3.21-46.22,16.22-53.76,7.28-2.83,28.41-5.88,37.02-6.97Z"/>
  <path class="cls-8" d="M1405.73,755.24c11.95-2.05,26.71,5.64,32.08,16.44,12.66,25.43-22.36,55.93-45.31,38.31-18.17-13.94-10.38-50.71,13.23-54.75Z"/>
  <path class="cls-31" d="M1486.76,919.26c15.16-2.06,39.1,2.88,38.25,22.2-.8,18.2-13.75,25.01-29.81,28.25-45.02,9.07-39.12-46.27-8.44-50.44Z"/>
  <path class="cls-39" d="M1345.77,519.25c10.12-1.25,16.37,3.3,20.41,12.07,7.32,15.92,7.29,31.43-14.7,28.7-20.86-2.58-28.87-37.92-5.71-40.77Z"/>
  <path class="cls-39" d="M1256.76,395.27c13.08-1.8,20.04,8.25,21.23,20.24.87,8.73,1.81,21.79-8.93,24.04-20.83,4.36-26.2-22.07-21.59-37.58,1.43-4.79,4.64-6.07,9.28-6.71Z"/>
  <path class="cls-38" d="M1366.75,651.19c7.59-1.45,17.61,9.17,18,16.56s-5.78,18.01-13.32,19.18c-21.48,3.34-21.15-32.59-4.68-35.74Z"/>
  <path class="cls-22" d="M1283.78,461.25c13.15-.35,13.63,14.95,1.1,20.13-18.75,7.76-18.61-19.67-1.1-20.13Z"/>
  <path class="cls-34" d="M1691,311c0,1.82.52,4.04-.97,5.53-1.15,1.14-16.04,5.92-19.06,6.99-1.6.56-3.55-.21-2.96,2.48-1.21-2.28-5.88-7.97-7.98-9.52-4.4-3.26-19.73-5.5-25.51-5.55-4.94-.04-21.68,3.12-24.53,1.59-1.92-1.53,1.56-2.98,2.26-4.77,1.01-2.57,1.77-15.07-.79-15.74-1.83-.48-3.32,1.72-5.04,2-1.88.31-9.09-1.3-10.43,0-.54.52,2.4,6.42-.26,8.75-2.1,1.83-15.42,4.14-18.73,4.25-41.38,1.31-52.01-28.55-86.22-37.28-20.81-5.31-46.22-5.64-68.02-9.98-10.5-2.09-19.52-6.6-30.3-6.78-6.43-.11-1.67,6.15-2.92,9-.42.96-7.31,5.81-8.6,6.47-2.07,1.06-4.67.34-6.66,1.86-5.74,4.41-10.7,23.84-15.54,25.96-6.24,2.74-18.52-9.18-25.74-9.26,9.97-14.73,22.94-30.96,38.31-40.19,44.32-26.63,102.76-46.9,154.7-36.32,44.99,9.17,85.26,34.65,119.46,64.54,13.48,11.78,27.33,31.72,45.53,35.97Z"/>
  <path class="cls-33" d="M1788,133c7.73.98,16.44,9.59,19,17l2.23.97c3.45,13.52,8.81,26.04,16.09,37.57l-.32,2.46c-.17.62,1.02,2.68.75,4.22-5.32,30.7-11.08,61.63-15.58,92.45-2.69,18.38-3.27,37.16-7.18,55.34l-2.99.99c-2.33-5.41-7.13-11.35-9.71-16.79-3.52-7.45-5.26-15.18-8.43-22.57-4.87-11.33-13.5-21.64-17.86-32.64-10.92-27.61-6.54-66.39-1.86-95.36,2.43-15.01,6.81-31.95,18.41-42.68,1.58-1.46,3.75.69,4.45-1.96.73-1.92,1.73-1.59,3,1Z"/>
  <path class="cls-44" d="M1791,116l.58,2.15c-3.13,3.57-3.25,8.81-2.03,13.22l-1.55,1.63c-.45-.31-2.04-.35-3-1-10.94-7.42-8.6-12.27-14.8-21.7-3.19-4.86-12.66-10.07-17.67-14.33-33.66-28.58-62.55-54.2-103.52-72.98,6.03,1.96,6.51-4.26,9.03-5.56,1.74-.9,4.17,1.47,4.97-1.44,38.66,19.65,85.13,44.51,113.51,77.99,5.78,6.81,9.47,14.81,14.49,22.01Z"/>
  <path class="cls-37" d="M341,411c-11.47,24.75-.59,32.95,4.55,55.95,3.87,17.3,3.4,37.85,18.95,50.05,2.07,1.62,7.84,3.36,8.27,5.61-4.24,18.63-10.64,38.64-17.78,56.39-3.76,9.37-10.76,25.8-16,34,1.61,2.79-1.08,5.8-4,5-4.78,6.01-11.06,11.57-16.73,16.77-33.09,7.6-65.47,20.89-99.27,23.24-.9-.9,1.43-12.89-1-15l-2.09-2.66c-1.37-24.82-4.88-51.24-19.71-71.93l-.2-3.41,16.83-31.67c6.1-9.95,12.04-20.08,19.17-29.33l2.74-6.43c17.01-16.5,29.31-35.66,40.61-56.52,1.01-1.03,2.24-1.7,3.66-2.04l2,.88c-.56,25.72,2.83,86.21,43.09,69.15,15.93-6.75,15.35-13.33,11.77-29.34-4.51-17.49-9.73-34.85-15.68-52.07-1.94-5.33-1.66-9.87.82-13.62-3.37-5.6,7.83-11.82,12.39-11.47,3.05.24,11.59,4.88,7.61,8.47Z"/>
  <path class="cls-2" d="M196,565c16.46,19.18,21.31,53.7,22,78,.54,18.97,2.89,64.38-21.59,68.91-37.57,6.96-76.47-26.04-96.85-53.97-11.58-15.87-13.47-28.3-21.36-45.64l-10.2-10.3c2.95-9.68,3.61-12.85,10.49-21.01,23.08-27.4,91.05-46.82,117.51-15.99Z"/>
  <path class="cls-1" d="M395.01,587c2.01,8.78-15.87,10.11-10.87,1.63,2.86-4.86,6.4-1.14,10.87-1.63Z"/>
  <path class="cls-1" d="M339,613c4.44-2.3,7.74-1.37,6.58,4.06-.95,1.25-4,.82-5.62,1.41-2.3.83-5.53,5.59-4.96-.46,1.22-1.54,3.04-3.5,4-5Z"/>
  <path class="cls-59" d="M218,229l2.36-1.08c67.93,34.83,95.04,107.7,101.04,181.66l-1.4,4.41c-.17,8.99-7.44,4.41-11.36.08-7.84-1.96-11.62,2.74-15.88,8.4l-11.28,16.38-2.47.14c-7.55,11.65-14.44,25.92-22.57,36.93-7.02,9.52-17.77,19.42-24.43,28.07,3.2-14.42-3.18-29.99-7.98-43.52-14.26-40.2-44.62-85.42-88.02-97.48-15.73-14.58-16.76-38.28-13.86-58.36,6.47-44.95,47.52-86.77,95.86-75.64Z"/>
  <path class="cls-6" d="M414,279c-5.62.85-10.15,3.88-17.3,2.02-1.03-.27-.9-2.34-2.33-2.85-1.35-.48-3.28.07-4.63-.41-1.92-.68-4.69-2.78-6.26-2.75-2.81.05-2.93,3.35-3.68,3.76-5.56,3.12-2.97-3.73-4.02-5.57-.53-.94-6.53-4.25-7.77-3.2,1.29,2.08.48,7.77,1.14,8.85s5.22-.15,5.6,6.9c.34,6.26-4.28,12.7-2.69,21.68.44,2.46,3.54,5.7,3.76,7.26.2,1.43-2.57,3.19-1.81,5.3,3.17-1.37,9.1,1.23,11.07-1.69,2.07-3.07-1.54-5.27-1.16-7.66.09-.54,5.16-2.87,4.08-5.64-.98-.19-3.66.32-4-.01-1-.99-.37-12.89-.9-15.35,13.86-8.29,6.68-1.19,7.98,2.73.44,1.33,2.69,1.26,2.96,2.31.58,2.26.11,4.93-2.56,5.37-2.03.34-4.89-2.31-4.46.43,2.77,4.33,4.01,1.16,6.49.89,2.87-.3,2.95,3.54,4.46,5.14,2.21,2.35,9.86,6.45,9.83,8.78-.02,1.76-7.87,13.55-9.5,14.49-5.25,3.05-7.14-.95-10.82-.89-2.13.04-3.53,1.85-5.94,2.15-4.25.54-9.92-3-12.08,1.99s5.5,17.84,5.57,24.5-4.64,5.99,1.32,13.1c.69.82,2.19,1.13,3.11,2.36,1.7,2.28,6.14,8.72,5.41,11.28-.3,1.05-5.02,4.6-5.38,4.6-3.26-.03-1.77-12.5-7.51-9.43-.45.24-5.7,7.76-5.83,8.25-.52,1.99,1.59,4.68,1.81,6.91.8,7.99-6.9,8.61-7.82,12.11-.46,1.78,2.67,11.11-.64,11.25-4.21.18-4.59-11.49-6.68-12.81-1.51-.96-4.08,1.24-3.83-1.65.73-8.32,18.03-5.14,14.57-15.56-2.47-7.44-11.34-1.99-14.02,2.11-1.94,2.97-.96,6.96-2.27,9.74-1.68,3.57-1.63.97-3.51,7.47-.52,1.79-2.29,2.7-2.77,3.74,1.85-3.08-8.76-6.97-9.35-6.85-.53.11-8.82,5.42-9.2,5.81-1.56,1.58-1.24,2.17-1.44,4.04-.28.87-.62.86-1,0-5.73-58.83-22.4-128.34-72.09-165.41-3.5-2.61-27.85-19.11-29.91-19.59l7.99-8.51c4.56-4,17.14-9.74,23.01-10.49,4.24-.54,19.37,1.36,24.38,2.12,28.64,4.35,52.71,29.61,77.59,43.41,11.19,6.21,35.03,15.48,47.5,19.5,5.11,1.65,10.48,2.25,15.53,3.97Z"/>
  <path class="cls-11" d="M1809,142c6.12,8.88,13.15,17.39,19,26,1.42,2.1,2.58,4.91,4,7,.16,3.35-1.51,6.68-2.83,9.67-.96,2.17-4.07,5.97-4.17,6.33-4.11-3.59-6.35-9.12-8.48-14.02-2.58-5.9-8.62-21.25-9.52-26.98-2.95-3.51-3.18-11.96,2-8Z"/>
  <path class="cls-54" d="M1791,116c6.01,8.64,12.01,17.32,18,26-2.88-1.31-2.38,5.56-2,8-5.46-6.31-12.16-12.19-19-17-2.03-5.18-1.62-13.4,3-17Z"/>
  <path class="cls-66" d="M1899,964c2.89,11.78,3.04,25.83,4,38-5.67,5.6-6.25-4.27-11.29-2.84-1.35.38-6.96,5.41-8.24,6.81s-2.32,4.55-2.7,4.81-8.01,3.91-8.48,4.02c-2.15.49-14.02,1.57-15.35.7-.83-.55-.8-2.33-1-2.47-.97-.7-2.68,1.56-3.46,1.62-1.05.08-2.78-1.9-4.96-1.69-1.97.18-2.72,2.38-4.23,2.84-3.1.96-6.12-.69-8.43-.26-2.12.39-4.26,3.33-7.23,2.38-4.28-1.38,1.34-8.02.35-10.91-6.97-1.44-8.55,6.01-12.5,9.99-2.94,2.95-5.7,3.52-8.49,5.01,14.42-14.69,26.76-29.48,37.17-47.33,5.33-9.15,19.98-42.32,30.42-43.65,4.68-.6,8.51,3.17,11.38,6.51,5.34,6.21,11.08,18.56,13.02,26.48Z"/>
  <path class="cls-66" d="M1905,1047c-1.8-1.44-2.45-4.61-2.74-6.76-1.17-8.54-2.28-23.48-1.34-31.8.18-1.6,3.45-2.06,2.08-5.43,1.1,14.59,2.27,28.87,2,44Z"/>
  <path class="cls-18" d="M704,44c-5.95-.33-13.02-.24-19,0,5.45-1.68,13.63-1.67,19,0Z"/>
  <path class="cls-18" d="M740,85c8.11,3.75,9.67,11.74,11.53,19.97,6.14,27.1,1.24,99-23.6,116.47-15.65,11.01-25.88-.85-32.11-14.76-2.17-4.85-3.87-13.23-6.02-16.98-.53-.92-.9-1.99-2.26-1.67-.73.17-10.51,8.29-11.59,9.43-10.32,11-8.69,29.6-9.96,43.54-.22,2.45-1.83,6.57-1.99,9.51-.41,7.66,3.24,31.11-9.51,14.51-2.33,1.77-1.13,4.63-1.95,7.03-2.26,6.54-7.79,6.77-11.6,10.4-1.91,1.82-2.25,4.38-3.19,5.31-.99.98-3.64,1.1-3.76,1.26-1.15,1.48,5.26,3.38-1.65,7.84-5.31,3.43-5.45,5.17-8.6,7.4-.99.7-10.84,5.23-12.3,5.7-2.88.92-9.47,2.4-10.99-.96-.61-1.36,1.18-3.51-.39-4.53-2.51-1.62-6.63.65-9.52.59-7.59-.18-14.18-9.86-21.23-12.35-3.26-3.79-1.53-8.49-2.86-12.64-2.26-7.06-16.53-22.37-17.16-28.69-.39-3.86,4.18-11.72,4.7-16.88,1.01-9.87-2-18.85-1.89-28.1.13-11.94,5.19-48.42,10.17-58.62,1.54-3.16,16.93-21.22,19.8-23.2,5.47-3.79,13.51-4.81,19.65-7.36,1.56-.64,2.6-2.6,4.01-3.02,2.41-.73,10.94,1.07,13.73,1.87,4.22,1.2,15.97,5.42,19.79,7.21,2.43,1.14,6.55,7.15,8.23,6.74,15.61-17.53,33.83-33.48,56.53-41.01,1-1.33-5.86-5.91-2.04-8.54,2.05-1.41,20.15,0,24.5-1.41,4.08,2.83,9.51,4.1,13.55,5.97Z"/>
  <path class="cls-52" d="M616.24,384.22c.21-.15,4.03-1.43,4.82-1.67,4.63-1.43,2,5.64,1,8.03-3.56,1.82-9.38-3.88-5.82-6.36Z"/>
  <path class="cls-52" d="M616,381.99c-4.54-1.05-12.03,4.05-12.99-2.98,4.6-2.6,10.91-2.57,12.99,2.98Z"/>
  <path class="cls-52" d="M661,387.99c-2.74-.05-6.28,1.04-4.98-2.48,1.19-3.22,5.38-.18,4.98,2.48Z"/>
  <path class="cls-52" d="M668,385.01c.92.81-4.25,6.34-5.99,4.99-1.14-.88,4.43-6.36,5.99-4.99Z"/>
  <path class="cls-29" d="M320,414h1c-1.55,13.94,8.86,34.9,12.72,48.78,2.3,8.31,7.44,27.55,5.84,35.27s-16.06,14.36-23.5,15.49c-31.34,4.79-34.79-36.07-37.04-58.06v-16.49c3.99-6.18,15-23.73,21.01-26.48,1.9-.87,7.28-.9,9.28-.31,3.19.94,6.16,9.56,10.7,1.79Z"/>
</svg>