<?xml version="1.0" encoding="UTF-8"?>
<svg id="Calque_1" data-name="Calque 1" xmlns="http://www.w3.org/2000/svg" viewBox="0 0 1922.12 1081.75">
  <defs>
    <style>
      .cls-1 {
        fill: #ca4047;
      }

      .cls-2 {
        fill: #98324f;
      }

      .cls-3 {
        fill: #d2a24c;
      }

      .cls-4 {
        fill: #d14844;
      }

      .cls-5 {
        fill: #bf344f;
      }

      .cls-6 {
        fill: #75354d;
      }

      .cls-7 {
        fill: #cf8a48;
      }

      .cls-8 {
        fill: #678784;
      }

      .cls-9 {
        fill: #0f8a9d;
      }

      .cls-10 {
        fill: #d0603b;
      }

      .cls-11 {
        fill: #5b3c52;
      }

      .cls-12 {
        fill: #67374d;
      }

      .cls-13 {
        fill: #b53450;
      }

      .cls-14 {
        fill: #70374e;
      }

      .cls-15 {
        fill: #70354e;
      }

      .cls-16 {
        fill: #daa844;
      }

      .cls-17 {
        fill: #ad3350;
      }

      .cls-18 {
        fill: #d1693c;
      }

      .cls-19 {
        fill: #cf6c3c;
      }

      .cls-20 {
        fill: #623b52;
      }

      .cls-21 {
        fill: #b9a45b;
      }

      .cls-22 {
        fill: #a1314e;
      }

      .cls-23 {
        fill: #d29f4b;
      }

      .cls-24 {
        fill: #cb3e4a;
      }

      .cls-25 {
        fill: #416274;
      }

      .cls-26 {
        fill: #cd3f49;
      }

      .cls-27 {
        fill: #ca4352;
      }

      .cls-28 {
        fill: #d09e4c;
      }

      .cls-29 {
        fill: #a1a061;
      }

      .cls-30 {
        fill: #108c9a;
      }

      .cls-31 {
        fill: #a0a062;
      }

      .cls-32 {
        fill: #be354e;
      }

      .cls-33 {
        fill: #afa763;
      }

      .cls-34 {
        fill: #949a64;
      }

      .cls-35 {
        fill: #563d51;
      }

      .cls-36 {
        fill: #693c53;
      }

      .cls-37 {
        fill: #be364f;
      }

      .cls-38 {
        fill: #d1773c;
      }

      .cls-39 {
        fill: #cca04d;
      }

      .cls-40 {
        fill: #c33c54;
      }

      .cls-41 {
        fill: #d4a343;
      }

      .cls-42 {
        fill: #cea14b;
      }

      .cls-43 {
        fill: #0f8c9b;
      }

      .cls-44 {
        fill: #c7394d;
      }

      .cls-45 {
        fill: #a53350;
      }

      .cls-46 {
        fill: #af3251;
      }

      .cls-47 {
        fill: #bc3452;
      }

      .cls-48 {
        fill: #593b51;
      }

      .cls-49 {
        fill: #d2a04b;
      }

      .cls-50 {
        fill: #77344c;
      }

      .cls-51 {
        fill: #573b51;
      }

      .cls-52 {
        fill: #d06e3b;
      }

      .cls-53 {
        fill: #a13250;
      }

      .cls-54 {
        fill: #0f8a9c;
      }

      .cls-55 {
        fill: #a5a261;
      }

      .cls-56 {
        fill: #cba546;
      }

      .cls-57 {
        fill: #583d52;
      }

      .cls-58 {
        fill: #9d9e61;
      }

      .cls-59 {
        fill: #cc3c4e;
      }

      .cls-60 {
        fill: #77354d;
      }

      .cls-61 {
        fill: #d5a24d;
      }

      .cls-62 {
        fill: #d1a34e;
      }

      .cls-63 {
        fill: #cd4746;
      }

      .cls-64 {
        fill: #0e8795;
      }

      .cls-65 {
        fill: #8f314e;
      }

      .cls-66 {
        fill: #4e8077;
      }

      .cls-67 {
        fill: #5f3c53;
      }

      .cls-68 {
        fill: #d3a44c;
      }

      .cls-69 {
        fill: #603b54;
      }
    </style>
  </defs>
  <path class="cls-54" d="M420.04,1.01c-4.72,53.24,6.32,86.29,56,110,18.06,2.23,36.3,1.47,54.72-2.28,5.02-1.31,9.11-.88,12.28,1.28-60.52,95.27-48.78,179.74,32.56,256.68,172.15,134.91,355.82-85.68,243.44-254.68l-3.73-1.82c-11.03-17.04-25.49-30.96-41.21-42.95l-.07-2.23c-2.87-.25-3.72-3.68-1-5l1.31-2.06c38.25-.96,71.86-19.87,84.68-56.94,0,0,47,0,47,0-5.29,76.35,86.31,74.47,80,0h274c-76.69,23.14-152.73,55.91-214,110,.12,2.59-2.04,4.21-6.47,4.87-28.25,2.33-58.49,33.49-64.15,60.4l-2.38.73c-49.8,87.72-61.23,201.32-39,301-18.36,42.52-14.13,96.61-10.35,142.31-.12,31.12-3.56,62.18-10.33,93.19-2.63,19.87-5.42,41.26.4,60.72,17.65,53.04,90.51,37.5,106.27-8.22,2.89-7.77,5.8,2.16,7.79,4.82,21.14,97.41,100.27,183.46,185.86,230.17,2.13,1.47,5.57,4.38,4.35,7.01,2.26,1.27,2.21,1.5.75,3.43-26.26,17.56-48.14,39.2-61.22,68.39,0,0-1.52,1.18-1.52,1.18h-73l-1.95-1.89c-8.39-51.88-69-47.04-79.04,1.89,0,0-37,0-37,0,37.93-249.25-367.73-257.65-331,0-2.32-2.23-264.05,4.3-264.2-2.3-12.46-90-152.5-91.02-158.8,2.3H1.04s0-233,0-233c45.4-2.55,94.22,3.02,142.07,1.74,0,0,4.93,1.26,4.93,1.26,14.11-2.18,25.5-1.6,36.68,8.21,19.55,13.82,39.08,27.51,60.34,39.46,102.25,68.67,205.6,2.83,176.41-119.2-2.12-13.03,2.84-23.81,14.14-29.08,14.53,2.2,51.65,7.56,63.09-2.87,12.32-11.24,13.95-42.81,14.48-58.97,1.21-36.68-7.73-49.6-43.4-58.57-5.52-3.85-18.36-6.65-20.74-11.97-3.77,2.42-7.48-4.5-3-6,27.21-111.32,28.73-230.22-26-334l-3.49-2.54c-7.49-14.78-18.02-27.62-28.62-40.25l-.89-4.21c-36.69-34.97-71.13-68.84-121.7-84.32,0,0-4.3-3.68-4.3-3.68v-2.82c39.7-29.23,77.06-85.65,70.83-136.95,0,0,2.17-2.23,2.17-2.23,0,0,86,0,86,0Z"/>
  <path class="cls-9" d="M1206.04,259.01c8.43-7.64,30.95,2.74,40.75,5.67,29.81,12.84,61.35,33.31,69.25,66.33.85-.23,2.05-.25,2.3.44,5.43,14.48,6.04,24.15.09,38.85-.14,94.68,95.96,179.58,188.6,164.71,3.94-3.87,15.35-3.67,20-1,0,0,9.85.1,9.85.1,68.97,30.18,141.55,59.34,216.94,35.23,140.21-52.31-3.24-142.29,49.89-223.08,31.24,19.02,76.41,25.83,105.16-1.71,0,0,3.16-.54,3.16-.54,0,0,2.57,1.06,2.57,1.06,11.42,8.74,4.83,107.11,6.43,119.94-27.49,15.12-38.44,34.07-23.99,64.8,8.77,16.23,16.49,4.76,23.99,7.2v219l-3.88,3.33c-40.65,15.7-78,39.41-116.12,59.67-107.59,73.99-142.09,126.93-183,250,2.27,3.15-.56,10.5-4,12h-100l-2.17-1.25c-23.5-44.73-56.7-88.4-105.65-106.36-33.33-17.11-62.56-42.86-86.55-71.35,0,0-.64-4.04-.64-4.04-11.72-3.43-23.31-39.61-27.16-51.4-35.13-118.41,95.45-209.97-85.12-259.35,0,0-1.72-2.26-1.72-2.26-7.79-2.04-9.13-12.08-12.26-18.73-9.01-34.43-26.4-60.65-49.46-86.64-10.83-14.96-22.02-41.21-11.28-57.63-2.97-12.86,30.54,15.77,49.97,2.56,17.41-8.18,31.79-31.58,24.26-50.51-13.9-25.82-13.27-55.47-8.01-83.75,1.06-8.57.92-17.53-2.97-25.45l.76-2.85c-.25-3.4,8.5-6.24,10-3Z"/>
  <path class="cls-32" d="M1604.04,1.01c55.04,23.57,107.08,51.81,151.29,94.84,16.1,8.44,22.54,23.07,30.71,37.16,1.91,2.96-.22,3.49-3.1,3.48-17.53,11.03-22.03,69.92-22.46,89.41-.69,31.48,6.96,50.32,23.4,77,4.34,14.21,10.42,27.45,18.24,39.72l-1.09,2.39c3.04-.21,3.55,1.28,1,3-3.84,15.95-11.72,34.9-8.88,52.38,5.12,53.34,46.88,74,15.4,133.64-21.66,41.03-106.85,52.82-147.72,43.68-28.29-6.32-67.08-16.42-93.47-27.53-13.16-5.54-26.1-15.06-40.33-16.17,98.07-19.17,170.2-110.7,140.8-209.97,8.22-2.71,16.32-5.64,24.3-8.77l.02-1.44c-9.39-1.53-17.63-7.77-24.42-14.3-84.72-104.06-247.53-121.88-333.71-11.53l-.31,4.1c-7.09,10.92-12.29,23.01-15.01,35.76l-2.68,3.14c-17.35-41.35-65.29-73.15-110-72-6.07-3.09-3.43-14.07-1.15-19.62,12.94-20.2,14.56-32.96,3.98-55.83-29.07-62.83-95.89-85.65-161.33-68.56-3.35-.43-4.48-1.92-1.5-3.99,41.17-39.99,95.13-70.06,148.73-90.77,40.01-31.12,358.75-16.26,409.27-19.23Z"/>
  <path class="cls-17" d="M1.04,605.01c10.99-9.49,49.15-4.19,64.33-1.04,9.03-4.92,15.82,7.35,18.91,14.79,4.2,15.83,8.2,26.98,18.51,40.07,17.04,29.78,101.71,86.37,112.15,27.77,2.39-13.52,2.35-27.44,2.15-41.06,0,0,1.96-1.53,1.96-1.53,8.63,2.94-5.84,15.57,13.32,11.74,29.88-6.18,59.12-13.79,87.72-22.82,5.02,1.91,5.27,11.33,5.44,16.29-4.92,8.41,9.83,1.56,8.83-4.61,0,0,5.12-4.8,5.12-4.8-.71-4.45,1.35-16.86,7.19-16.81,3.32.03,5.87,4.51,3.38,7.01l1.79,2.54c-12.88,64.25,71.98,76.09,43.03,104.51-3.53,3.52-10.4,15.38-15.82,13.95-.63,1.88-1.49,3.92-2.89,5.3-20.25,16.37-44.4,36.28-69.11,44.7.29,2.01-.56,2.42-2,1,.33,2.63-.34,3.3-2,2-85.01,63.58-202.46,46.8-302,44v-243Z"/>
  <path class="cls-61" d="M137.04,364.01c43.54-1.02,109.82,100.6,96,141-8.91,21.1-24.62,39.62-33.55,60.65-1.35.38-4.09.3-5.46.05-35.35-31.9-110.55-2.45-124.99,37.3-.21,7.16-24.23-1.46-30.46-1.04-11.76-.75-26.5-.89-37.54,3.04v-306c21.95,34.96,44.03,43.92,84.23,52.32,4.31,1.25,50.02,8.42,51.77,12.68Z"/>
  <path class="cls-15" d="M334.04,1.01c-1.08,10.07,2,20.23.74,30.24-7.2,33.52-43.16,94.31-73.74,111.76C174.88,126.92,74.29,118.18,1.04,176.01V1.01h333Z"/>
  <path class="cls-10" d="M261.04,143.01c54.64,19.31,89.46,43.77,126,88,.04,3.52-3.44,2.46-5.96,1.05-9.51-7.75-18.17-17.52-29-23.01-2.07,6.28-12.18,5.14-13.72-.9.94-6.84-.44-11.32-4.12-13.46-4.74-.69-7.94-2.65-9.58-5.9-2.79,5.82-7.93,2.58-11.91-.25-4.63,2.6-6.9-.49-9.34-4.24-2.7.64-5.7-.06-8.97-2.1-1.34,4.84-5.49,5.6-9.6,3.31-1.94,2.04-4.61,2.99-8,2.84-5.94,8.13-11.85,10.01-17.73,5.62-5.74,2.52-8.89-2.02-13.85-.68-.24,6.47-1.85,8.18-7.64,4.53l-.66,4.97c3.54-2.44,6.36-2.14,9.42.79,7.6-2.46,12.08,2.79,3.57,5.79,1.33,1.67,1.08,1.84.41,3.74-11.45,2.68-21.96,7.53-28.42,17.7-70.6-13.65-123.68,75.15-84.9,133.2C-20.56,336.98.93,318.38,1.05,176c68.59-60.62,176.51-53.39,260-33Z"/>
  <path class="cls-58" d="M965.04,1081.01h-179s-1.87-3.53-1.87-3.53c1.5-23.1-7.75-42.79-18.32-62.36-20.94-41.04,9.41-85.76,27.74-121.98-4.95.53-7.14-.51-6.55-3.14,107.32-5.84,207.35,77.94,178,191Z"/>
  <path class="cls-28" d="M787.04,890.01c1.3,2.59,9.92-.81,8.97,2.46s-6.17,9.75-8.15,13.86c-59.37,119.88-5.11,81.15-1.83,174.67h-152c-20.77-96.93,50.16-196.06,153-191Z"/>
  <path class="cls-62" d="M1901.04,1.01c9.79,2.81-34.84,22.08-38.09,25.58-6.27,4.61-8.45,20.98-5.36,27.91,2.39,5.36,17.55,20.03,23.2,21.03,5.68,1,25.33-3.16,31.66-4.83,11.15-8.21,8.26,7.33,8.59,13.31-5.15,7.45-22.38,6.97-28.68.06-27.32,17.08-50.14,45.99-53.45,78.72-.4,4.57-4.55,10.78-8.87,7.22-7.39-6.28-18.59-16.81-20-27-6.19-3.65-10.85-10.92-12-18-33.17-51.85-82.64-77.23-134-108-6.56.72-28.17-10.04-31-16h268Z"/>
  <path class="cls-5" d="M600.04,1.01c5.2,3.2,5.71,10.71-.83,13.04.16,4.39-1.81,5.38-5.85,4.96l-4.8,3.65c-.29,3.04-1.57,4.89-3.81,5.55.43,3.57-2.01,4.55-5.13,4.78.95,2.15.03,3.56-1.32,5.15,5.12-.2,7.8,3.04,9.79,7.27,4.71.61,4.16,3.26-1.63,7.96-1.65,6.57-3.46,13.58-8.33,18.57-8.42,3.76-14.86,6.84-18.45,15.95l-17.8,18.7c-4.88.65-10.12.68-15.7.1-68.26,28.01-124.4-40.07-106.13-105.68h180Z"/>
  <path class="cls-14" d="M1618.04,1069.01c16.46-3.15,34.8-.82,51.4,1.7,12.71-3.25,25.49-5.73,38.34-7.44,70.44,4.87,123.42-60.46,151.95-118.08,16.95-28.83,31.84-10.58,38.32,12.82,12.21,32.24,14.07,85.92,6.76,121.04.24,5.78-289.08-.05-290.76,1.96.99-4.06,2.83-8.03,4-12Z"/>
  <path class="cls-13" d="M859.04,1.01c-6.57,39.58-49.89,58.17-86,59-78.9-25.38-167.29-13.97-227.76,50.58-22.89-2.17-46.44,8.98-69.24.42,7.11,1.1,24.68-.12,32.05-1.45,7.85-1.41,13.75-5.25,22.28-5.17,3.26.03,7.59,2.48,10.21.71,7.17-9.2,17.15-15.18,21.9-26.15,3.7-4.19,14.67-8.42,15.32-9.19.3-.36,3.98-7.38,4.31-8.18,2.58-6.35.17-10.66,8.92-14.08-8.19,1.3-3.68-8.33-14.48-7.53-4.53-.79,1.52-4.29,1.55-4.61.09-1.18-1.5-4-1.06-4.35.96-.78,9.6,1.58,4-5,9.12,1.37.29-2.72,11.64-8.85,5.67-.58,3.62,1.38,4.86-4.13,7.87-4.8,3.28-4.98,2.5-12.03h259Z"/>
  <path class="cls-31" d="M1921.04,84.01c-3.62,15.96,10.82,242.34-13,246-22.27-53.03-47.6-103.46-75-154-3.19.38-5.11-3.74-3-6,1.87-.87,4.3-1.07,5.47-3.04,4.2-28.74,18.35-55.52,41.52-74.47,28.22-23.5,7.67,3.79,44.01-8.49Z"/>
  <path class="cls-63" d="M1921.04,756.01v131c-1.58.64-2.95.09-4.1-1.65-.54,7.17-3.12,12.1-7.73,14.79,3.21,3.94,4.66,7.56-.99,9.77,1.47,11.98-7.19,14.78-14.6,6.28-7.15,1.15-14.53,9.16-21.57,4.81-33.8-20.17-59.09-49.37-71.13-87.48-2.87-5.84-2.83-10.68.13-14.52,37.14-23.47,78.15-48.58,120-63Z"/>
  <path class="cls-3" d="M1390.04,978.01c13.32,16.81-4.69,45.7-12.43,62.57-6.06,12.27-7.9,24.95-5.6,38.37,0,0-1.96,2.07-1.96,2.07h-133c-4.79-1.15-7.98-12.4-5-16,0,0-.8-9.83-.8-9.83-1.72-1.05-1.2-2.03.46-3.03,30.02-3.56,85.78-35.34,92.25-66.43-.06-4.53.64-8.43,2.09-11.71,1.47-3.35,13.35-4.14,15.5-1-.91-4.58,24.95-1.9,27.53-2,0,0,1.47,2,1.47,2-.53-4.25,19.14,1.47,19.5,5Z"/>
  <path class="cls-42" d="M372.04,1081.01h-161c-1.16-98.27,155.37-91.82,161,0Z"/>
  <path class="cls-29" d="M1326.04,974.01c4.34,40.68-59.97,74.88-93.95,80.05-.55.56.28,9.04-.05,10.95-2.24-.99-3.3-3.19-3.17-6.62-25.05,3.14-50.74,11.26-72.83,22.62,9.91-29.53,34.24-52.08,59.14-69.36,1.32-1.06,3.01-1.39,2.86-3.64,34.24-12.25,70.47-37.27,108-34Z"/>
  <path class="cls-44" d="M1514.04,1081.01h-96s-1.49-2.82-1.49-2.82c20.64-53.16,44.92-72.09-23.82-97.86-2.28-19.25-30.3-15.29-28.71-31.57-8.32.07-12.65-3.7-16.39-10.75-6.21-2.51-10.41-7.46-12.61-14.84l-12.63-13.62c-6.58-1.26-9.7-8.9-3.36-11.53,28.66,37.64,72.49,68.64,115.67,86.83,33.36,21.9,62.65,59.97,79.33,96.17Z"/>
  <path class="cls-18" d="M1392.04,978.01c74.25,27.14,45.25,47.75,26,103h-48c-9.67-37.87,32.25-65.14,20-103,.15-2.63,1.14-2.5,2,0Z"/>
  <path class="cls-1" d="M986.04,1.01c15.64,43.07-47.07,84.38-72.8,40.3-8.1-13.06-11.08-25.07-7.2-40.3h80Z"/>
  <path class="cls-16" d="M1901.04,1.01h20v71c-5.21-3.51-4.78-.3-7.96.58-8.45,1.68-22.72,5.15-32.06,5.02-6.71-1.06-23.29-16.66-25.72-23.37-3.09-10.25-.18-28.45,11.66-31.82,9.5-8.59,28.55-12.32,34.08-21.42Z"/>
  <path class="cls-27" d="M1872.04,921.01c5.93,2.1,18.34-8.65,22.97-6.51,2.61,1.21,3.82,6.73,9.04,4.03,3.62-1.87,1.69-8.06,2.45-9.51.81-1.55,3.48-1.71,3.62-2.59.37-2.5-3.46-5-3.02-6.81,10.93-6.78,2.69-10.91,10.44-17.59l3.49,4.99v194h-18c6.84-44.94,4.36-98.27-10.88-140.97-3.29-15.14-21.6-11.37-20.12-19.03Z"/>
  <path class="cls-47" d="M1083.04,1081.01h-81c4.28-54.58,78.62-53.55,81,0Z"/>
  <path class="cls-40" d="M1921.04,465.01v72c-38.17,20.32-46.79-63.73,0-72Z"/>
  <path class="cls-64" d="M1232.04,1065.01c1.05,5.68,1.95,10.91,5,16h-79c17.3-18.75,49.42-18.33,72.52-25.98.19,3.54.89,6.77,1.48,9.98Z"/>
  <path class="cls-30" d="M1633.04,1.01c2.52,3.15,48.31,21.01,26.69,19.4-2.65,4.63-4.35,5.97-9.69,3.6-15.57-7.1-32.28-11.89-46-23h29Z"/>
  <path class="cls-56" d="M1921.04,362.01c-3-5.37-6.87-12.33-9-18-12.56-9.04.87-27.85,9-36v54Z"/>
  <path class="cls-4" d="M1205.04,585.01c215.88,61.44,8.46,173.76,114,313-3.19,9.83.05,6.9,4.58,9.96.8.54,11.76,12.51,12.99,13.97,4.01,7.33,3.57,11.25,12.39,14.61,4.98,8.6,8.1,10,17.05,10.45-4.82,16.3,31.69,14.5,25.99,31.01-5.26,0-16.73-5.27-21.5-5-11.5-.46-33.32,0-44.5,1-34.87,1.42-74.55,22.77-105.46,34.99-61.63-32.55-118.47-88.72-157.35-147.68-24.61-34.65-36.84-73.8-41.6-114.31-4.74-42.76,27.52-88.6,49.82-123.72,20.95-14.63,39.67-28.96,66.09-35.91,20.76-4.54,47.45-9.96,67.5-2.37Z"/>
  <path class="cls-26" d="M588.04,469.01c1.48-1.03,2.75-.39,3.81,1.95,4.4-3.19,8.7-2.65,5.39,3.27-15.68,18.42-12.78,25.6,3.27,42.3,20.7,21.54,44.02,38.96,69.44,54.22l13.63,15.31c34.22-20.19,69.33-47.69,112.69-38.04,60.08,11.08,104.35,58.41,76.51,120.25-49.7,162.06-288.18,168.81-341.91,5.41-31.78-73.47-10.59-160.57,57.17-204.66Z"/>
  <path class="cls-23" d="M1049.04,453.01c35.2,38.46,53.39,107.56,34.3,158.82-28.34,41.44-61.78,82.38-60.3,137.18,0,0-.71,15.81-.71,15.81-15.33,48.74-90.05,65.35-110.02,11.42-13.28-39.22,11.47-104.62,9.72-148.72-3.55-47.75-9.77-108.81,11.79-152.73,20.35-38.06,88.19-67.23,115.22-21.78Z"/>
  <path class="cls-53" d="M251.04,211.01c8.14-7.25,47.11,6.17,56.78,13.66,34.26,25.04,70.18,47.4,112.22,53.34,57.77,98.83,55.92,223.14,27.75,331.3-1,3.03-2.61,2.94-4.68,3.94-35.51-14.7-62.88-12.2-89.97,16.55,0,0-3.1.21-3.1.21-4.2-13.71-9.85,3.96-8.48,9.93-.96,3.05-4.58,4.3-5.57,5.78-1.9,6.96-2.63,6.95-9.52,9.27-7.75.6-2.75-4.42-2.72-7.27.04-3.81-2.94-9.22-1.72-13.71-1.86-2.32,2.57-6.69,5-5,3.76-1.5,5.76-3.5,6-6,15.73-30.61,31.34-64.22,38.66-99.17-11.73-5.27-18.78-15.51-21.82-27.93-.76-28.48-25.24-58.98-9.19-85.32,1.89-3.15-6.46-5.26-8.93-4.04-5.72,3.84-9.29,3.99-10.72.46-16.9-75.79-29.11-132.91-103-177,4.32.11,5.26-4.99,8.48-8.02,4.66-4.41,18.29-10.41,24.52-10.98Z"/>
  <path class="cls-45" d="M546.04,1032.01l-2.37,1.24c-11.46-7.12-22.39-15.11-32.79-23.97-3.43-2.63-23.52-8.58-23.21-14.38-8.66-1.23-16.56-4.01-23.7-8.34-40.37-53.68-40.1-84.5-11.44-143.58,10.78-28.95,12.1-56.47,41.19-74.81,33.82-21.31,99.48,11.2,123.84,37.81,56.52,57.66,35.91,252.75-71.51,226.01Z"/>
  <path class="cls-33" d="M571.04,365.01c1.74-3.07,3.91-5.67,6.5-7.82-.37-3.55.6-6.98,2.91-10.3-3.59-7.94,1.71-12.44,9.56-10.32,3.09-3.71,7.71-5.78,13.88-6.22-10.53-4.61-5.08-10.62,3.41-12.79,96.05-30.76,37.98-69.59,67.4-119.63,3.12-4.23,12.58-14.62,17.12-9.58,13.88,50.92,40.4,45.81,54.97-.63,3.81-1.81,8.94-1.29,8.58,4.09,15.04-2.4,11.83,12.78,12.11,22.91,3.98,2.01,5.33,3.49,5.65,8.12l10.9,7.79c2.86,4.35,5.14,4.45,6.83.29,4.69-.91,9.61-.87,14.76.13,10.53-2.77,16.37-.17,17.52,7.82,5.95-5.06,8.2,2.5,17.33,3.12,2.78.47,4.96-31.14,2.95-35.2-4.41-12.28-5.78-23.24-4.78-36.13-5.45-17.2-12.36-33.93-20.73-50.18-3.59-3.34-5.47-10.23,1.13-8.48,124.56,162.26-85.14,399.97-248,253Z"/>
  <path class="cls-19" d="M1206.04,259.01c-3.14.34-7.02,1.83-10,3,0,0-1.46,2.8-1.46,2.8-16.69,9.34-34.3,16.66-52.83,21.99-13.26,5.07-26.81,12.1-33.86,25,0,0-2.85,1.22-2.85,1.22-68.67-4.64-120.7-71.57-132-136,1.52-18.56,27.41-46.69,42.32-56.19,8.44-4.09,25.11-5.87,30.69-9.81-.42,3.07,1.06,2.05,3.01,1.51,69.35-21.04,158.28,20.29,168.97,96,1.64,21.38-19.45,29.85-11.98,50.48Z"/>
  <path class="cls-24" d="M973.04,177.01c2.82-.59,1.89,1.39,2.3,3.15,9.08,39.56,23.6,64.51,51.67,93.38,19.16,24.08,50,31.06,78.03,39.47,0,0,1.04,2.63,1.04,2.63-3.79,10.02-5.16,20.81-5.93,31.45-4.61,4.04-2.06,15.67-3.15,21.9-41.59,18.38-48.56,41.92-47.97,84.03-35.28-41.84-91.48-15.03-115,25-25.56-100.86-15.63-211.67,39-301Z"/>
  <path class="cls-22" d="M875.04,596.01l-2.52,1.02c-46.88-61.58-123.7-60.38-179.81-13.85-3.5,2.32-4.55,6.35-9.98,4.64-1.53-.48-10.67-12.44-13.22-14.79-25.08-16.31-71.15-47.05-84.14-73.86-3.91-11.59,7.45-19.73,11.65-29.17l-5.48,3.99-3.52-4.99c111.84-75.87,262.03-1.5,287,127Z"/>
  <path class="cls-55" d="M773.04,60.01c1.16,4.31,1.93,7.82-4.87,7.18-10.74,6.87-20.63,12.66-28.52,20.44-8.83-4.06-16.68-4.38-26.04-2.58.1,1.91-.2,3.48-2.01,4.44-24.78,8.91-44.6,22.78-62.34,43.14,0,0-2.51-.04-2.51-.04-9.82-10.44-25.75-13.47-39.46-15.53-4.64,4.07-10.42,6.59-17.35,7.56-40.9,23.05-31.43,77.33-33.38,116.71-3.55,7.93-4.53,10.75-.19,18.45,5.61,7.12,10.1,14.64,13.46,22.57-.51,7.46.92,10.2,8.22,12.58,12.02,15.78,23.17-.15,26.53,10.92-1.44,8.69,7.27,1.98,10.04-1.35,5.9.5,9.32-1.79,10.27-6.86,5.77-3.04,5.91-3.38,6.84-9.61,4.32-.55,7.14-2.7,8.46-6.47,9.67-4.83,11.81-7.34,11.1-18.06.7-3.08,3.26-4.43,5.79-2.35,5.3,13.51,7.37,8.67,6.21-14.53.41-2.6.89-4.87,3.74-3.62.12,13.49,3.21,26.15-2.97,39.53-4.45,9.63-25.87,25.98-35.76,30.24-6.1,3.3-42.23,9.16-22.27,16.25,3.12,4.45-8.96,4.08-11.72,5.75-1.8,1.09-2.9,3.79-3.7,3.91-1.66.25-6.74-2.19-8.56,1.07-2.21,3.95.49,5.19.65,6.77.07.67-4.37,8.32,1.91,3.54,1.91-1.46,2.04-5.64,5.47-4.68.46.13,7.62,4.8,7.95,5.14,1.63,1.67,1.27,4.67,3.49,6.51s6.83,3.51,9.04,5.96l1.97-6.98c2,.61,4.94,9.63,4.51,9.98-1.48-.18-8.4.48-8.91,1.08-1.08,1.27,1.26,6.47.92,6.91-1.21,1.61-8.61,2.32-11.03-.47-3.59-4.14-1.37-13.75-2.45-15.52-1.01-1.67-3.11.86-5.11-.87-1.55-1.35-1.27-3.98-1.43-4.13-.32-.3-2.85,1.06-4.28.84-7.38-4.74-5.64,1.52-4.71,5.15-5.46-1.1-3.42,7-9.01,6.01-167.53-152.93,1.13-382.74,202-305Z"/>
  <path class="cls-48" d="M434.04,752.01c-21.47,17.5-4.1,44.06-5.96,67.54-1.79,134.17-134.34,127.56-215.57,61.48-18.34-11.83-42.99-35.9-64.47-30.02,50.38-2.09,111.45-19.91,155-47,9.88,4.84-17.66,14.04-4.52,10.32,0,0,5.67.76,5.67.76,3.98-3.77,7.23-4.07,9.75-.89,15.61-14.11,23.9,1.3,48.62-13.67,15.38,5.43,13.41-6.96,22.13-10.43-1-8.9,8.15-9.24,10.39-1.28,3.32.64,6.99.46,11.02-.53,4.24,6.61,6.78,8.48,6.79-1.26-3.74-14.28-4.72-31.18,11.82-37.68,3.68-1.45,11.84-2.74,9.33,2.67Z"/>
  <path class="cls-12" d="M434.04,752.01c-7.06-7.61-22.08,8.66-21.95,16.59-.17,4.13,3.04,14.3,2.82,19.96-1.42,4.01,0,10.2-6.47,6.54-4.23-10.84-5.31-.33-14.4-4.6-1.64-1-1.58-6.11-5.35-5.31s-1.44,4.77-2.08,5.82c-5.89,3.43-3.16.54-7.05,7.02-5.35,6.44-9.29,6.71-16.63,4.44-35.81,17.7-20.24-.52-45.11,10.56-1.66.89-1.13,3.8-5.19,2.99-.72-.14-.18-2.17-2.06-2.13-6.9,2.13-3.12,4.4-11.9,2.4-4.13,0-14.63,10.51-13.16,2.67.97-1.26,3.64-1.09,4.82-1.93,1.35-.96,3.11-3.47,5.23-5.02,2.48-1.81,9.24-2.76,7.48-8.02,1.74-3.83,6.41.49,4-3,25-15.03,50.51-30.09,72-50,.97-1.06,2.17-1.03,3.58.09,19.03-10.27,29.56-29.5,36.75-48.38,5.35-9.3,13.37-16.87,23.4-20.71,10.01-13.4,8.03-16.68,25.46-21.55-2.66-2.42-2.72-5.48-.19-9.18l-1.14-8.76c3.96-7.01.94-11.92-9.06-14.73l-1.83-2.3c-5.45,1.3-12.66-3.7-6.97-7.48,28.81,19.25,63.12,9.41,66.05,55.45,1.03,16.13-1.44,57.57-10.61,70.49-13.05,18.73-51.77,10.79-70.44,8.06Z"/>
  <path class="cls-21" d="M774.04,65.01c15.33,9.7,34.91,31,45,47-5.35,3.11-.97,4.25.74,7.76,6.56,13.42,13.74,29.56,18.77,43.24,4.6,12.49.99,13.88,1.97,24.54.5,5.44,4.88,16.31,5.6,22.89.52,4.81-.6,29.46-3.55,32.6-2.16,2.3-4.09-.24-6.27-.79-1.46-.36-3.18,0-4.53-.46-1.79-.6-2.67-3.42-5.09-2.72-4.89,1.42.14,12.02-3.13,11.92-3.57-.1-1.73-7.26-1.95-9.02-1.7-13.8-5.75-8.86-16-8.91-2.64-.01-10.71-1.4-12.97-.89-1.43.32-1.63,3.2-3.23,3.75-3.46,1.19-4.72-2.39-6.84-3.91-1.61-1.15-10.43-7.23-11-8-.94-1.28-.55-3.96-1.41-5.34-1.15-1.85-4.94-.09-5-6.24,1.59-4.59-.05-13.09-1.57-17.44-1.05-1.98-3.19.89-4.52,1.04v-3.01c-7.93,2.59-4.67-1.92-6.21-3.79-.51-.62-3.51-.16-3.8-2.2-1.23-24.52,12.3-72.61-3.53-95.23-2.46-1.81-3.95-3.73-4.47-5.77-1.84-2.19-.05-2.09,1.27-3.22,7.24-4.93,23.1-20.3,31.73-17.78Z"/>
  <path class="cls-6" d="M446.04,612.01c-.75,3.21.69,4.46,3,6-1.25,8.02,6.53,4.71,8.06,5.51,2.84,5.95,12.35,4.39,13.81,12.24.42,1.68-1.6,3.39-1.92,5.69-.09,6.67,2.37,9.48-.98,15.1.02,2.74,4.01,1.79,3.03,3.94-3.82,4.66-10.11,3.69-14.64,5.91-1.96.95-9.18,14.28-12.34,17.12-2.63,2.37-8.29,3.32-10.01,4.99-2.54,2.47-3.07,3.5-6.51,6.49-22.47,30.07-5.23,30.32-45.01,58.98l-3.49-2.98c44.57-41.14,5.34-29.66-23.54-76.96-6.34-12.54-6.74-30.32-5.46-44.04,10.07-9.88,24.15-21.43,37.74-25.76,21.04-6.7,38.4,2.22,58.26,7.76Z"/>
  <path class="cls-52" d="M251.04,211.01c-2.03.27-4.03.32-3.02-2.5.42-1.17,4.89-1.59,5.02-3.49-7.61-.2-4.32,2.17-11.49-1.98-1.92-.06-4.08,2.65-6.5,1.97-.47-.5.23-8.34,1.08-8.91,2.27-1.51,6.13,2.82,6.91,1.91-.94-9.51,3.3-5.56,6.09-7.43,1.34-.9.16-5.41,2.93-3.05-3.15,8.77,3.54,4,7.4,4.49,2.06.26,4.75,3.25,6.96,2.8,4.5-2.51,8.57-10.03,14.91-9.01,6.45-5.59,1.97-.66,8.77-1.18,2.81-.71,1.74-3.2,2.88-4.17,1.85-1.57,7.25,3.13,10.08,2.55-1.68-2.68-.44-1.58,1.98-3-.72,2.47,1.92,6.67,3.99,7.55,1.3.55,2.35-1.23,3.48-1.19,4.05,1.14,7.9,7.29,11.2.61,4.6-1.29,2.78,2.36,4.3,3.53s7.31,1.57,9.98,4.04c5.4,6.9-2.78,18.66,10.43,16.34,2.84-1.03-.83-5.8,6.35-3.12,6.67,3.38,10.4,10.55,17.77,13.23,3.86,3.15,9.08,12.22,14.5,10,55.13,66.55,35.28,54.43-28.36,28.86-34.72-17.99-65.3-52.02-107.64-48.86Z"/>
  <path class="cls-68" d="M464.04,984.01c10.61,10.02,24.36,4.17,26.65,13.09,3.43,2.67,15.65,6.92,21.27,10.5,10.35,6.59,23.24,20.78,34.08,24.42,3.81,71.6-111.87,24.21-82-48Z"/>
  <path class="cls-66" d="M1025.04,766.01c-1.61-1.18-3.39-1.18-5,0,1.26-5.33.95-11.82,3-17,.27,5.65,1.17,11.41,2,17Z"/>
  <path class="cls-49" d="M1577.04,308.01c7.03,1.81,15.26-1.88,15.3,6.09,14.43,4.82,21.42-2.72,25.21,3.31,6.12,10.33-16.46,19.88-23.86,22.98-3.03,3.68-6.24,6.42-9.63,8.23-3.88-1.85-6.75-1.95-8.97,2.32-1.94,9.97-6.86,13.52-15.9,16.46-4.57,6.61-6.61,13.64-2.32,20.94-1.73,9.31-1.83,18.23-.29,26.77,4.51,1.97,4.66,5.21,4.48,9.64,14.46,10.11-13.79,11.65-11.54,24.44,4.65,8.01,8.61,21.97-.59,28-.25,5.5-2.26,7.06-6.1,2.55-1.32-.46,2.36,4.29,2.93,4.15,2.03,6.37-16.95,34.22-24.78,36.82-8.41,1.73-12.43,5.97-12.04,12.7-91.83,25.79-186.91-65.59-192.87-155.9-.88-11.52,5.23-17.6,5.05-27.01-.08-3.93-3.53-15.62-5.07-19.48,3.07-16.28,8.79-29.38,18-43,4.32-4.84,16.6,6.32,21.26,7.89,13.15,3.8,8.61-28.12,26.86-26.18,0,0,8.69-7.63,8.69-7.63-3.57-6.73.01-9.76,10.75-9.11,24.34,6.4,49.29,10.62,74.83,12.65,38.27,1.04,59.76,39.9,97.62,40.29,0,0,2.99,2.1,2.99,2.1Z"/>
  <path class="cls-37" d="M1801.04,819.01c-1.34,15.82,10.14,32.15,16.14,46.36,12.09,23.66,35.86,37.17,54.86,55.64,5.02,4.89,9,3.55,14.33,7.17,7.69,5.23,11.11,20.94,11.67,29.83-10.84-22.77-21.55-39.6-38.41-8.91-26.25,56.32-86.74,124.14-154.81,116.18-11.64.5-25.87,7.41-37.28,7.52-14.41-3.31-29.12-3.45-44.01-2.77-1.69-.02-4.45.64-5.49-1.02,24.73-104.17,89.14-197.79,183-250Z"/>
  <path class="cls-7" d="M1577.04,308.01c5.25-4.44,13.89-2.2,20.41-3.56,1.01-6.05,9.34-10.14,10.9-2.16,6.48-.8,6.95,6.27,2.97,9.97,16.16-.83,54.93-7.54,57.73,14.75,36.08,99.51-59.82,210.93-162,208-1.38-19.45,12.63-6.9,28.41-32.09,1.67-2.55,9.09-16.32,8.66-18.24-.15-.65-5.47-2.24-2.6-6.71,2.16-3.36,3.76,2.68,5.52,3.03-1.93-7.14,4-6.12,5.85-11.74-1.22-4.31-1.11-9.27-2.07-13.54-.78-3.48-4.21-5.16-3.62-8.96.28-1.82,4.87-8.51,6.33-9.78,6.2-3.96,14.78-4.99,5.67-11.64-.61-1.88.35-4.29-.63-6.38-10.23-6.24-3.01-21.21-3.69-30.49-.07-3-2.58-4.89-2.71-6.92-.2-2.96,2.91-13.11,5.19-15.24,2.11-1.97,6.48-2.64,8.61-3.89,7.7-4.52,4.59-10.79,9.39-15.11,5.01-4.51,7.95.1,9.67-.74,6.62-9.51,14.08-10.35,22.96-15.14,1.27-.89,8.71-8.24,8.87-9.07.17-.88-1.65-6.25-2.45-6.43-3.65-.86-7,2.64-10.01,2.79-3.3-.43-10.88-3.36-14.35-2.71,2.1-10.51-8.35-2.66-12.99-8.01Z"/>
  <path class="cls-46" d="M1132.04,422.01c-11.95,41.93,26.93,68.04,44.82,98.68,12.01,19.92,14.18,47.24,28.18,64.32-46.72-6.46-91.78,7.05-127.67,36.83-1.76.88-2.61,2.39-2.33-.83,17.98-21.83,16.48-76.9,7.49-101.99-7.95-18.35-21.25-51.49-33.49-66.01-6.24-43.91,7.65-67.5,47.84-86.16.99-5.71-1.23-12.47,1.16-17.84l1.87,2.96c-1.96,25.34,5.57,51.83,29.93,63.45,2.93,2.12,5.1,3.74,2.19,6.59Z"/>
  <path class="cls-57" d="M1196.04,262.01c9.5,16.68,2.09,34.94,1.01,52.51-.68,11.08-.08,25.73,2.45,36.52,4.42,18.85,16.16,25.79,8.31,47.24-6.73,18.4-24.76,33.9-45.17,31.62-7.05.95-29.52-13.85-30.61-7.9.21-4.78-6.95-6.26-10.5-9-30.89-23.36-27.2-66.88-16.5-100,17.41-32.58,63.38-31.7,91-51Z"/>
  <path class="cls-51" d="M1908.04,330.01c.1,3.22,2.75,10.68,4,14-28.85,31.34-76.9,22.91-110,4-.03-1.17-.57-2-1-3-.94-1.87,1.06-3.34,1.47-1.85,5.67-50.41,14.86-101.85,22.53-151.15,2.66-4.71,4.37-12.37,8-16,32.23,47.42,55.01,100.39,75,154Z"/>
  <path class="cls-11" d="M1565.78,834.24c55.21-3.04,104.12,36.42,47.57,81.57-52.56,35.27-103.53-59.96-47.57-81.57Z"/>
  <path class="cls-35" d="M1540.79,639.26c41.99-.41,29.69,83.56-14.25,75.73-10.02-.91-31.81-7.93-39-15-16.61-16.35-3.21-46.22,16.22-53.76,7.28-2.83,28.41-5.88,37.02-6.97Z"/>
  <path class="cls-39" d="M1406.78,756.25c12.07-1.9,26.63,5.5,32.08,16.44,15.99,32.12-39.8,64.67-53.59,25.59-5.69-16.13,3.02-39.12,21.51-42.03Z"/>
  <path class="cls-20" d="M1487.8,920.27c44.51-7.24,53.41,42.35,9.24,50.24-45.64,10.18-40.28-46.02-9.24-50.24Z"/>
  <path class="cls-67" d="M1346.79,520.24c14.35-2.04,21.14,9.48,23.8,21.72,3.26,15.01-2.62,20.99-18.07,19.08-20.51-2.54-29.39-37.43-5.73-40.79Z"/>
  <path class="cls-69" d="M1257.8,396.27c23.88-5.87,32.49,48.55,5.84,44.65-17.61-.64-24.96-42.38-5.84-44.65Z"/>
  <path class="cls-41" d="M1367.79,652.19c27.76.9,19.15,45.88-5.25,33.81-11.44-7.87-7.82-31.31,5.25-33.81Z"/>
  <path class="cls-8" d="M1283.83,462.21c14.55-1.31,15.06,16.7.04,21.12-16.1,4.74-16.03-19.68-.04-21.12Z"/>
  <path class="cls-38" d="M1334.04,288.01c39.16-59.43,124.58-87.04,193.01-76.51,45.56,9.29,93.51,39.13,127.03,70.97,12.29,11.43,21.33,26.83,39.91,29.59.23.25.26,4.24-.09,4.81-.61.99-18.82,6.58-21.89,7.66-1.6.56-3.55-.21-2.96,2.48-6.69-13.65-19.94-13.74-33.47-14.05-8.93-.86-17.65,1.08-26.52,1.05-.72-3.54,3.08-3.81,2.81-7.24-.41-5.37-5.17-1-5.81-1.76v-5c-5.12-.85-5.55,2.7-7.68,6.04-48.05,12.33-69.18-23.21-106.55-35.32-20.44-5.29-46.36-5.84-68.02-9.97-7.05-1.35-15.3-5.18-22.3-5.78-2.75-.24-6.07,1.64-9.45.04-1.71,2.76,1.44,5.73.53,7.97-.24.59-8.96,8.26-9.55,8.52-2.81,1.24-5.02-.44-8.07,1.93-.99.77-6.4,9.34-7.12,10.88-2.4,5.1-2.79,15.59-10.9,14.19-5.75-.99-15.74-10.2-22.9-10.49Z"/>
  <path class="cls-2" d="M1793.04,137.01c6.05-.07,12.89,7.42,15,13l2.21,1.48c3.63,13.24,8.89,25.9,15.78,37.99-4.21,49.66-16.5,103.28-22.01,154.54l-2.99.99c-7.72-12.06-13.57-25.22-17.82-38.68-7.49-17.54-18.58-29.57-22.69-49.31-5.32-25.53-.42-92.91,14.68-114.34.73-1.04,6.42-7.89,6.87-8.18,1.07-.69,3.44,1.07,3.96-1.49,2.42-2.07,7.37.82,7,4Z"/>
  <path class="cls-36" d="M1798.04,125.01l-2.82,11.01-2.18.99c-13.77-5.89-15.91-14.28-21.8-25.7-39.18-32.06-74.06-65.76-121.2-87.3,6.03,1.95,6.5-4.24,9-5.56,1.92-1.01,5.59,2.69,5-1.44,50.36,25.16,106.75,56.58,134,108Z"/>
  <path class="cls-59" d="M333.04,623.01c.15,2.35-1.85,4.35-6,6-7.11,10.39-26.18,11.05-38.01,14.49-19.36,5.37-41.51,13.95-61.53,14.55-12.55.37-4.93-5.71-8.45-14.04,0,0-2.09-2.5-2.09-2.5-1.52-24.85-4.92-51.55-19.78-72.22-2.8-.96,16.39-33.53,16.71-34.95,6.57-12.29,16.34-23.08,21.9-35.78,16.65-16.51,29.07-35.62,40.45-56.23,1.55-1.63,3.77-2.99,5.83-1.44-.81,21.51,2.22,78.24,34.91,71.65,13.04-2.63,23.87-7.9,21.59-22.26-2.43-28.06-22.69-54.77-17.5-83.27,4.4,2.67,8.55-3.32,13.44-2.97,13.8,2.97,7.5,6.77,3.67,16.58-4.7,17.89,4.72,30.68,8.44,47.34,3.94,22.44,4.98,43.62,27.23,55.65-8.73,33.93-19.74,70.98-40.78,99.4Z"/>
  <path class="cls-60" d="M197.04,566.01c16.23,18.49,21.26,54.29,22,78,4.23,65.2-14.37,86.7-76.92,55.42-15.66-9.12-47.5-42.84-53.38-59.62-4.75-13.55-5.52-28.34-19.7-36.8,8.77-44.68,97.91-71.37,128-37Z"/>
  <path class="cls-48" d="M307.04,801.01c2.64-.43,2.08.53,2,2.99-4.1.75-6.02-1.33-2-2.99Z"/>
  <path class="cls-50" d="M218.04,230.01c66.32,29.89,96.94,108.34,102,177,2.21,16.68-13.89-5.26-27.72,17.29,0,0-9.93,15.73-9.93,15.73l-2.35-.03c-12.68,23.24-29.03,46.22-47,65-.06-55.98-40.65-123.37-96-141-44.18-51.23,12.68-151.18,81-134Z"/>
  <path class="cls-43" d="M1830.04,170.01c5.22,6.03,1.69,18.32-5,22-13.49-25.22-36.4-83.17,5-22Z"/>
  <path class="cls-25" d="M1798.04,125.01c4.07,5.93,7.93,12.1,12,18-2.62.84-2.24,4.62-2,7-5.05-4.34-9.49-9.16-15-13,.94-2.73,1.18-13.02,5-12Z"/>
  <path class="cls-65" d="M280.04,440.01c25.68-49.13,34.55-16.52,40-33h1c-.11,25.69,11.99,47.6,17.71,72.8,3.28,17.57,5.26,24.72-13.2,32.21-43.6,16.32-45.65-43.69-45.51-72.01Z"/>
  <path class="cls-17" d="M333.04,623.01c4.06,4.29-2.52,4.15-6,6,1.56-1.49,4.77-4.56,6-6Z"/>
  <path class="cls-34" d="M741.04,86.01c23.73,16.03,12.12,76.44,8,101-14.94,50.27-45.1,54.99-59.53.99-21.06,10.62-22.66,33.66-22.48,55.01-5.04,3.66,1.7,26.92-4.62,27.95-4.08.66-5.45-9.47-7.87-8.94s-1.12,8.71-1.76,11.25c-1.54,6.15-8.84,7.27-11.5,10-1.81,4.73-3.49,5.59-8.2,5.8-.21,6.28-.29,6.24-6.67,9.83-2.79,8.43-4.05,5.9-11.42,7.6-1.9.94-3.19,6.21-9.25,5.32s-1.77-5.79-3.7-7.3c-4.35-3.41-8.36,1.55-14.05.01-7.62-2.64-9.19-8.25-16.48-10.52-5.67-4.11-2.33-7.64-4.05-12.95-5.95-14.47-22.64-23.71-12.7-40.81,2.47-9.86-.29-14.82-.55-23.74-.33-30.6,2.79-72.93,30.3-91.51,6.98-4.34,16.79-3.62,22.23-9.84,9.77-.11,24.47,5.41,33.52,9.11,2.43,1.14,6.55,7.15,8.23,6.74,11.04-11.85,24.41-25.57,38.85-33.18,3.83-2.02,23.06-9.15,24.24-10.8.26-.37-.45-2.92-.57-3.02-1.64-1.36-7.39,5.79-7-2,14.13,3.33,21.48-3.75,36.99,4Z"/>
</svg>